<?xml version="1.0" encoding="utf-8"?>
<!-- Generator: Adobe Illustrator 26.0.3, SVG Export Plug-In . SVG Version: 6.00 Build 0)  -->
<svg version="1.1" id="Layer_1" xmlns="http://www.w3.org/2000/svg" xmlns:xlink="http://www.w3.org/1999/xlink" x="0px" y="0px"
	 viewBox="0 0 50 50" style="enable-background:new 0 0 50 50;" xml:space="preserve">
<style type="text/css">
	.st0{fill:#506A66;}
	.st1{fill:#DBE1E0;}
	.st2{fill-rule:evenodd;clip-rule:evenodd;fill:#506A66;}
</style>
<g>
	<path class="st0" d="M34.5,40.8H15.5c-3.48,0-6.3-2.82-6.3-6.3V15.5c0-3.48,2.82-6.3,6.3-6.3H34.5c3.48,0,6.3,2.82,6.3,6.3V34.5
		C40.8,37.98,37.98,40.8,34.5,40.8z"/>
	<g>
		<g>
			<rect x="16.77" y="22.13" class="st1" width="3.54" height="11.41"/>
			<path class="st1" d="M29.57,21.79c-2.6,0-3.61,1.89-3.61,1.89v-1.55h-3.4v11.41h3.4v-6.14c0,0,0-2.41,2.1-2.41
				c1.76,0,1.96,1.59,1.97,2.11v6.44h3.51v-7.71C33.54,23.89,32.17,21.79,29.57,21.79z"/>
			<circle class="st1" cx="18.54" cy="18.54" r="2.09"/>
		</g>
	</g>
</g>
</svg>
