<?xml version="1.0" encoding="utf-8"?>
<!-- Generator: Adobe Illustrator 26.0.3, SVG Export Plug-In . SVG Version: 6.00 Build 0)  -->
<svg version="1.1" id="Layer_1" xmlns="http://www.w3.org/2000/svg" xmlns:xlink="http://www.w3.org/1999/xlink" x="0px" y="0px"
	 viewBox="0 0 50 50" style="enable-background:new 0 0 50 50;" xml:space="preserve">
<style type="text/css">
	.st0{fill:#506A66;}
	.st1{fill:#DBE1E0;}
	.st2{fill-rule:evenodd;clip-rule:evenodd;fill:#506A66;}
</style>
<g>
	<path class="st0" d="M25.06,14.78c-2.7,0-5.24,1.05-7.15,2.96c-1.91,1.91-2.96,4.45-2.96,7.15c0,1.78,0.46,3.5,1.34,5.03
		l-0.65,2.37l-0.81,2.94l2.94-0.78l2.48-0.66c1.47,0.8,3.12,1.21,4.8,1.21c2.7,0,5.24-1.05,7.15-2.96c1.91-1.91,2.96-4.45,2.96-7.15
		s-1.05-5.24-2.96-7.15C30.3,15.83,27.76,14.78,25.06,14.78z M25.06,33.24c-1.68,0-3.24-0.49-4.55-1.34l-3.19,0.85l0.85-3.11
		c-0.93-1.35-1.48-2.98-1.48-4.75c0-4.62,3.74-8.36,8.36-8.36c4.62,0,8.36,3.74,8.36,8.36C33.42,29.5,29.67,33.24,25.06,33.24z"/>
	<path class="st0" d="M29.85,27.09l-1.91-0.91c-0.38-0.18-0.56,0.1-0.56,0.1l-0.85,1.05c-0.15,0.15-0.36,0.07-0.36,0.07
		c-2.44-0.91-3.55-3.04-3.55-3.04c-0.18-0.25,0.05-0.48,0.05-0.48s0.29-0.28,0.55-0.67c0.26-0.38,0.12-0.66,0.12-0.66
		s-0.63-1.5-0.81-1.92C22.35,20.23,22,20.26,22,20.26s-0.08,0-0.5,0c-0.38,0-0.66,0.29-0.66,0.29c-0.96,0.86-0.89,2.09-0.89,2.09
		c0,1.6,1.83,3.73,1.83,3.73c2.63,3.26,6.01,3.37,6.01,3.37c0.93,0.01,1.86-0.57,2.14-1.13c0.27-0.57,0.25-1.2,0.21-1.29
		C30.11,27.23,29.85,27.09,29.85,27.09z"/>
</g>
</svg>
