<?xml version="1.0" encoding="utf-8"?>
<!-- Generator: Adobe Illustrator 26.0.3, SVG Export Plug-In . SVG Version: 6.00 Build 0)  -->
<svg version="1.1" id="Layer_1" xmlns="http://www.w3.org/2000/svg" xmlns:xlink="http://www.w3.org/1999/xlink" x="0px" y="0px"
	 viewBox="0 0 50 50" style="enable-background:new 0 0 50 50;" xml:space="preserve">
<style type="text/css">
	.st0{fill:#506A66;}
	.st1{fill:#DBE1E0;}
	.st2{fill-rule:evenodd;clip-rule:evenodd;fill:#506A66;}
</style>
<g id="Mail_2_00000183966421986664811910000015246196014409365126_">
	<path class="st0" d="M35.7,14.75H14.3c-1.97,0-3.57,1.6-3.57,3.57v13.37c0,1.97,1.6,3.57,3.57,3.57h21.4c1.97,0,3.57-1.6,3.57-3.57
		V18.31C39.27,16.35,37.67,14.75,35.7,14.75z M37.48,31.69c0,0.98-0.8,1.78-1.78,1.78H14.3c-0.98,0-1.78-0.8-1.78-1.78V18.31
		c0-0.98,0.8-1.78,1.78-1.78h21.4c0.98,0,1.78,0.8,1.78,1.78V31.69z"/>
	<path class="st0" d="M35.5,19.53c-0.31-0.38-0.87-0.44-1.25-0.13L25,26.97l-9.24-7.56c-0.38-0.31-0.94-0.26-1.25,0.13
		c-0.31,0.38-0.26,0.94,0.13,1.25l9.81,8.02c0.16,0.13,0.36,0.2,0.56,0.2s0.4-0.07,0.56-0.2l9.81-8.02
		C35.75,20.47,35.81,19.91,35.5,19.53z"/>
	<path class="st0" d="M31.87,26.6c-0.35-0.35-0.91-0.35-1.26,0c-0.35,0.35-0.35,0.91,0,1.26l3.57,3.57c0.17,0.17,0.4,0.26,0.63,0.26
		c0.23,0,0.46-0.09,0.63-0.26c0.35-0.35,0.35-0.91,0-1.26L31.87,26.6z"/>
	<path class="st0" d="M18.13,26.6l-3.57,3.57c-0.35,0.35-0.35,0.91,0,1.26c0.17,0.17,0.4,0.26,0.63,0.26c0.23,0,0.46-0.09,0.63-0.26
		l3.57-3.57c0.35-0.35,0.35-0.91,0-1.26C19.04,26.25,18.48,26.25,18.13,26.6z"/>
</g>
</svg>
