<?xml version="1.0" encoding="utf-8"?>
<!-- Generator: Adobe Illustrator 26.0.3, SVG Export Plug-In . SVG Version: 6.00 Build 0)  -->
<svg version="1.1" id="Layer_1" xmlns="http://www.w3.org/2000/svg" xmlns:xlink="http://www.w3.org/1999/xlink" x="0px" y="0px"
	 viewBox="0 0 50 50" style="enable-background:new 0 0 50 50;" xml:space="preserve">
<style type="text/css">
	.st0{fill:#506A66;}
	.st1{fill:#DBE1E0;}
	.st2{fill-rule:evenodd;clip-rule:evenodd;fill:#506A66;}
</style>
<g id="Phone_00000029746097287140064600000005316279837300552621_">
	<path class="st0" d="M37.29,23.63c-2.17-4.99-6.07-8.88-10.99-10.93c-0.41-0.17-0.88,0.03-1.04,0.45c-0.17,0.42,0.03,0.9,0.44,1.07
		c4.53,1.9,8.13,5.48,10.13,10.08c0.13,0.31,0.42,0.49,0.73,0.49c0.11,0,0.22-0.02,0.33-0.07C37.29,24.54,37.47,24.05,37.29,23.63z"
		/>
	<path class="st0" d="M25.28,18.63c2.75,1.15,4.93,3.31,6.14,6.1c0.13,0.3,0.41,0.47,0.71,0.47c0.11,0,0.21-0.02,0.32-0.07
		c0.39-0.18,0.56-0.65,0.39-1.05c-1.38-3.16-3.86-5.62-6.97-6.92c-0.4-0.17-0.85,0.03-1.01,0.44C24.69,18,24.88,18.47,25.28,18.63z"
		/>
	<path class="st0" d="M33.09,28.26c-0.44-0.43-0.93-0.65-1.43-0.65s-0.99,0.22-1.42,0.65c-0.67,0.66-1.33,1.32-1.99,1.99
		c-0.11,0.11-0.21,0.17-0.32,0.17c-0.07,0-0.14-0.02-0.23-0.07c-0.43-0.23-0.89-0.43-1.3-0.68c-1.93-1.21-3.55-2.78-4.98-4.53
		c-0.71-0.87-1.34-1.81-1.79-2.86c-0.09-0.21-0.07-0.35,0.1-0.53c0.67-0.64,1.32-1.3,1.97-1.96c0.91-0.92,0.91-1.99-0.01-2.92
		c-0.52-0.53-1.04-1.04-1.56-1.57c-0.54-0.54-1.07-1.08-1.61-1.61c-0.44-0.43-0.93-0.64-1.42-0.64c-0.49,0-0.99,0.22-1.42,0.65
		c-0.67,0.66-1.32,1.34-2,1.99c-0.63,0.6-0.95,1.33-1.02,2.19c-0.11,1.39,0.24,2.71,0.72,3.99c0.98,2.65,2.48,5.01,4.3,7.17
		c2.46,2.92,5.39,5.23,8.82,6.9c1.54,0.75,3.15,1.33,4.89,1.42c0.11,0.01,0.21,0.01,0.31,0.01c1.07,0,2-0.33,2.76-1.18
		c0.57-0.64,1.21-1.22,1.82-1.83c0.9-0.91,0.9-2,0.01-2.9C35.23,30.38,34.16,29.32,33.09,28.26z M35.13,33.21
		c-0.2,0.2-0.4,0.4-0.61,0.6c-0.42,0.41-0.85,0.83-1.27,1.29c-0.4,0.45-0.86,0.64-1.55,0.64c-0.07,0-0.15,0-0.22-0.01
		c-1.3-0.07-2.62-0.46-4.27-1.26c-3.18-1.55-5.97-3.73-8.29-6.49c-1.85-2.2-3.17-4.39-4.03-6.7c-0.5-1.33-0.69-2.35-0.62-3.29
		c0.04-0.48,0.2-0.84,0.52-1.14c0.42-0.4,0.83-0.81,1.24-1.22c0.26-0.26,0.52-0.52,0.78-0.78c0.14-0.14,0.25-0.18,0.29-0.18
		c0.04,0,0.15,0.04,0.29,0.18c0.36,0.35,0.71,0.7,1.06,1.06l0.53,0.54c0.27,0.27,0.53,0.53,0.8,0.8c0.26,0.26,0.51,0.51,0.77,0.77
		c0.3,0.3,0.28,0.35,0,0.63l-0.27,0.28c-0.55,0.56-1.11,1.12-1.69,1.68c-0.63,0.63-0.8,1.47-0.45,2.3c0.46,1.09,1.1,2.12,2.02,3.26
		c1.69,2.07,3.45,3.67,5.38,4.89c0.32,0.2,0.64,0.36,0.92,0.5c0.15,0.08,0.31,0.15,0.44,0.22c0.33,0.19,0.68,0.28,1.03,0.28
		c0.38,0,0.95-0.12,1.48-0.66c0.64-0.66,1.29-1.3,1.97-1.97c0.14-0.14,0.25-0.18,0.28-0.18c0.04,0,0.14,0.04,0.28,0.18
		c1.07,1.06,2.13,2.12,3.19,3.19C35.39,32.84,35.41,32.92,35.13,33.21z"/>
</g>
</svg>
