<?xml version="1.0" encoding="utf-8"?>
<!-- Generator: Adobe Illustrator 26.0.3, SVG Export Plug-In . SVG Version: 6.00 Build 0)  -->
<svg version="1.1" id="Layer_1" xmlns="http://www.w3.org/2000/svg" xmlns:xlink="http://www.w3.org/1999/xlink" x="0px" y="0px"
	 viewBox="0 0 50 50" style="enable-background:new 0 0 50 50;" xml:space="preserve">
<style type="text/css">
	.st0{fill:#506A66;}
	.st1{fill:#DBE1E0;}
	.st2{fill-rule:evenodd;clip-rule:evenodd;fill:#506A66;}
</style>
<g>
	<path class="st0" d="M34.5,40.8H15.5c-3.48,0-6.3-2.82-6.3-6.3V15.5c0-3.48,2.82-6.3,6.3-6.3H34.5c3.48,0,6.3,2.82,6.3,6.3V34.5
		C40.8,37.98,37.98,40.8,34.5,40.8z"/>
	<path class="st1" d="M26.17,26.11h2.79l0.59-3.13h-3.37v-1.37c0,0,0-0.93,0.47-1.45c0.42-0.45,1-0.62,1.73-0.62
		c0.73,0,1.33,0.04,1.33,0.04v-2.87c0,0-2.95-0.72-4.99,0.25c-2.03,0.97-2.38,2.81-2.32,6.02h-2.13v3.14h2.13v7.42h3.76V26.11z"/>
</g>
</svg>
