<?xml version="1.0" encoding="utf-8"?>
<!-- Generator: Adobe Illustrator 26.0.3, SVG Export Plug-In . SVG Version: 6.00 Build 0)  -->
<svg version="1.1" id="Layer_1" xmlns="http://www.w3.org/2000/svg" xmlns:xlink="http://www.w3.org/1999/xlink" x="0px" y="0px"
	 viewBox="0 0 50 50" style="enable-background:new 0 0 50 50;" xml:space="preserve">
<style type="text/css">
	.st0{fill:#506A66;}
	.st1{fill:#DBE1E0;}
	.st2{fill-rule:evenodd;clip-rule:evenodd;fill:#506A66;}
</style>
<g>
	<path class="st0" d="M34.5,40.8H15.5c-3.48,0-6.3-2.82-6.3-6.3V15.5c0-3.48,2.82-6.3,6.3-6.3H34.5c3.48,0,6.3,2.82,6.3,6.3V34.5
		C40.8,37.98,37.98,40.8,34.5,40.8z"/>
	<g>
		<path class="st1" d="M25,20.61c-2.43,0-4.39,1.97-4.39,4.39c0,2.43,1.97,4.39,4.39,4.39c2.43,0,4.39-1.97,4.39-4.39
			C29.39,22.57,27.43,20.61,25,20.61z M24.97,27.87c-1.57,0-2.84-1.27-2.84-2.84c0-1.57,1.27-2.84,2.84-2.84
			c1.57,0,2.84,1.27,2.84,2.84C27.81,26.6,26.54,27.87,24.97,27.87z"/>
		<path class="st1" d="M32.55,18.4c-0.58-0.84-1.46-1.43-2.44-1.68c-0.48-0.12-1.04-0.22-1.56-0.24c-1.18-0.05-2.36-0.06-3.55-0.06
			c-1.18,0-2.37,0.01-3.55,0.06c-0.52,0.02-1.09,0.12-1.56,0.24c-0.98,0.25-1.86,0.85-2.44,1.68c-0.81,1.15-0.87,2.21-0.94,3.37
			c-0.06,0.99-0.06,2-0.04,2.98c0.02,1.02,0,2.01,0.02,3.03c0.01,0.57,0.03,1.16,0.13,1.72c0.17,1.07,0.54,1.88,1.34,2.68
			c0.68,0.68,1.65,1.12,2.7,1.27c0.71,0.1,1.86,0.13,3.44,0.13c0.3,0,0.6,0,0.91,0c0.3,0,0.61,0,0.91,0c1.57,0,2.72-0.03,3.44-0.13
			c1.05-0.15,2.02-0.59,2.7-1.27c0.8-0.8,1.16-1.6,1.34-2.68c0.09-0.57,0.11-1.15,0.13-1.72c0.03-1.02,0.01-2.01,0.02-3.03
			c0.02-0.99,0.02-2-0.04-2.98C33.42,20.61,33.36,19.55,32.55,18.4z M32.1,27.2c0,0.52-0.03,1.84-0.18,2.27
			c-0.31,1.41-1.25,2.15-2.43,2.4c-0.78,0.17-2.19,0.16-2.71,0.17h-3.45c-0.52-0.01-1.93,0-2.71-0.17c-1.18-0.24-2.12-0.99-2.43-2.4
			C18.03,29.03,18,27.72,18,27.2v-4.41c0-0.52,0.03-1.84,0.18-2.27c0.31-1.41,1.25-2.15,2.43-2.4c0.78-0.17,2.19-0.16,2.71-0.17
			h3.45c0.52,0.01,1.93,0,2.71,0.17c1.18,0.24,2.12,0.99,2.43,2.4c0.15,0.44,0.18,1.75,0.18,2.27V27.2z"/>
	</g>
</g>
</svg>
