<?xml version="1.0" encoding="utf-8"?>
<!-- Generator: Adobe Illustrator 26.0.3, SVG Export Plug-In . SVG Version: 6.00 Build 0)  -->
<svg version="1.1" id="Layer_1" xmlns="http://www.w3.org/2000/svg" xmlns:xlink="http://www.w3.org/1999/xlink" x="0px" y="0px"
	 viewBox="0 0 50 50" style="enable-background:new 0 0 50 50;" xml:space="preserve">
<style type="text/css">
	.st0{fill:#506A66;}
	.st1{fill:#DBE1E0;}
	.st2{fill-rule:evenodd;clip-rule:evenodd;fill:#506A66;}
</style>
<g>
	<path class="st0" d="M34.5,40.8H15.5c-3.48,0-6.3-2.82-6.3-6.3V15.5c0-3.48,2.82-6.3,6.3-6.3H34.5c3.48,0,6.3,2.82,6.3,6.3V34.5
		C40.8,37.98,37.98,40.8,34.5,40.8z"/>
	<path class="st1" d="M32.94,16.45h-1.39l-5.57,6.34l-4.45-6.34h-5.07l6.71,9.55l-6.64,7.56h1.39l5.87-6.68l4.69,6.68h5.07
		l-6.95-9.89L32.94,16.45z M31.47,32.47h-2.44l-4.52-6.43l-0.62-0.88l-5.37-7.63h2.44l4.28,6.09l0.62,0.88L31.47,32.47z"/>
</g>
</svg>
