<?xml version="1.0" encoding="utf-8"?>
<!-- Generator: Adobe Illustrator 26.0.3, SVG Export Plug-In . SVG Version: 6.00 Build 0)  -->
<svg version="1.1" id="Layer_1" xmlns="http://www.w3.org/2000/svg" xmlns:xlink="http://www.w3.org/1999/xlink" x="0px" y="0px"
	 viewBox="0 0 50 50" style="enable-background:new 0 0 50 50;" xml:space="preserve">
<style type="text/css">
	.st0{fill:#506A66;}
	.st1{fill:#DBE1E0;}
	.st2{fill-rule:evenodd;clip-rule:evenodd;fill:#506A66;}
</style>
<path class="st0" d="M25.93,14.69c-8.32-0.15-8.89,6.77-8.89,6.77c-0.28,3.32,1.36,4.49,2.12,5c0.76,0.5,0.89-0.17,0.89-0.17
	s0.29-0.98,0.28-1.2c-0.01-0.22-0.34-0.58-0.34-0.58c-1.23-1.5-0.28-4.22-0.28-4.22c1.54-3.84,5.43-3.61,5.43-3.61
	c4.01-0.04,4.77,2.99,4.77,2.99s0.71,2.47-0.35,5.07c-1.06,2.6-2.71,2.85-3.2,2.82c-0.49-0.03-1.05-0.13-1.62-0.82
	c-0.57-0.69-0.15-1.87-0.15-1.87L25.12,23c1.03-3.04-0.19-3.59-1.04-3.71c-0.85-0.12-1.87,0.5-2.3,2.01
	c-0.43,1.51,0.24,2.9,0.24,2.9l-1.63,6.91c-0.23,1.59-0.03,3.73,0.06,4.04c0.09,0.3,0.31,0.06,0.31,0.06
	c1.4-1.67,2.02-3.53,2.02-3.53c0.09-0.15,0.93-3.59,0.93-3.59c1.07,1.8,3.49,1.47,3.49,1.47c5.82-0.86,5.8-7.69,5.8-7.69
	C32.9,14.87,25.93,14.69,25.93,14.69z"/>
</svg>
