<?xml version="1.0" encoding="utf-8"?>
<!-- Generator: Adobe Illustrator 26.0.3, SVG Export Plug-In . SVG Version: 6.00 Build 0)  -->
<svg version="1.1" id="Layer_1" xmlns="http://www.w3.org/2000/svg" xmlns:xlink="http://www.w3.org/1999/xlink" x="0px" y="0px"
	 viewBox="0 0 50 50" style="enable-background:new 0 0 50 50;" xml:space="preserve">
<style type="text/css">
	.st0{fill:#506A66;}
	.st1{fill:#DBE1E0;}
	.st2{fill-rule:evenodd;clip-rule:evenodd;fill:#506A66;}
</style>
<g>
	<path class="st0" d="M34.5,40.8H15.5c-3.48,0-6.3-2.82-6.3-6.3V15.5c0-3.48,2.82-6.3,6.3-6.3H34.5c3.48,0,6.3,2.82,6.3,6.3V34.5
		C40.8,37.98,37.98,40.8,34.5,40.8z"/>
	<path class="st1" d="M19.84,32.54c0.89,0.63,1.97,1,3.14,1c3,0,5.43-2.43,5.43-5.43l-0.03-5.98c1.82,1.4,4.07,1.32,4.07,1.32v-2.3
		v-0.62c0,0-1.16,0.01-2.28-0.73c-0.29-0.19-0.58-0.43-0.84-0.74c-0.56-0.64-0.79-1.35-0.89-1.86c-0.08-0.44-0.06-0.74-0.06-0.74
		h-2.95v11.66c0,1.36-1.1,2.46-2.46,2.46c-0.42,0-0.81-0.1-1.16-0.29c-0.77-0.41-1.3-1.23-1.3-2.17c0-1.36,1.1-2.46,2.46-2.46
		c0.25,0,0.48,0.04,0.71,0.1l0.02-2.33l0.01-0.69c-0.24-0.03-0.49-0.05-0.74-0.05c-3,0-5.43,2.43-5.43,5.43
		C17.55,29.94,18.45,31.56,19.84,32.54z"/>
</g>
</svg>
