<?xml version="1.0" encoding="utf-8"?>
<!-- Generator: Adobe Illustrator 26.0.3, SVG Export Plug-In . SVG Version: 6.00 Build 0)  -->
<svg version="1.1" id="Layer_1" xmlns="http://www.w3.org/2000/svg" xmlns:xlink="http://www.w3.org/1999/xlink" x="0px" y="0px"
	 viewBox="0 0 50 50" style="enable-background:new 0 0 50 50;" xml:space="preserve">
<style type="text/css">
	.st0{fill:#506A66;}
	.st1{fill:#DBE1E0;}
	.st2{fill-rule:evenodd;clip-rule:evenodd;fill:#506A66;}
</style>
<path class="st0" d="M35.13,21.55c-0.23-3.46-2.08-3.41-3.77-3.56c-1.69-0.15-6.36-0.2-6.36-0.2s-4.67,0.05-6.36,0.2
	c-1.69,0.15-3.54,0.11-3.77,3.56c0,0-0.22,2.44-0.17,3.45c-0.05,1.02,0.17,3.45,0.17,3.45c0.23,3.46,2.08,3.41,3.77,3.56
	c1.69,0.15,6.36,0.2,6.36,0.2s4.67-0.05,6.36-0.2c1.69-0.15,3.54-0.11,3.77-3.56c0,0,0.22-2.44,0.17-3.45
	C35.35,23.98,35.13,21.55,35.13,21.55z M22.93,28.08v-6.2l5.4,3.12L22.93,28.08z"/>
</svg>
