<?xml version="1.0" encoding="utf-8"?>
<!-- Generator: Adobe Illustrator 26.0.3, SVG Export Plug-In . SVG Version: 6.00 Build 0)  -->
<svg version="1.1" id="Layer_1" xmlns="http://www.w3.org/2000/svg" xmlns:xlink="http://www.w3.org/1999/xlink" x="0px" y="0px"
	 viewBox="0 0 50 50" style="enable-background:new 0 0 50 50;" xml:space="preserve">
<style type="text/css">
	.st0{fill:#506A66;}
	.st1{fill:#DBE1E0;}
	.st2{fill-rule:evenodd;clip-rule:evenodd;fill:#506A66;}
</style>
<g>
	<path class="st0" d="M34.5,40.8H15.5c-3.48,0-6.3-2.82-6.3-6.3V15.5c0-3.48,2.82-6.3,6.3-6.3H34.5c3.48,0,6.3,2.82,6.3,6.3V34.5
		C40.8,37.98,37.98,40.8,34.5,40.8z"/>
	<path class="st1" d="M33.4,22.14c-0.19-2.87-1.72-2.83-3.13-2.95c-1.4-0.13-5.27-0.17-5.27-0.17s-3.87,0.04-5.27,0.17
		c-1.4,0.13-2.93,0.09-3.13,2.95c0,0-0.18,2.02-0.14,2.86c-0.04,0.84,0.14,2.86,0.14,2.86c0.19,2.87,1.72,2.83,3.13,2.95
		c1.4,0.13,5.27,0.17,5.27,0.17s3.87-0.04,5.27-0.17c1.4-0.13,2.93-0.09,3.13-2.95c0,0,0.18-2.02,0.14-2.86
		C33.58,24.16,33.4,22.14,33.4,22.14z M23.29,27.56v-5.14L27.76,25L23.29,27.56z"/>
</g>
</svg>
