<?xml version="1.0" encoding="utf-8"?>
<!-- Generator: Adobe Illustrator 26.0.3, SVG Export Plug-In . SVG Version: 6.00 Build 0)  -->
<svg version="1.1" id="Layer_1" xmlns="http://www.w3.org/2000/svg" xmlns:xlink="http://www.w3.org/1999/xlink" x="0px" y="0px"
	 viewBox="0 0 50 50" style="enable-background:new 0 0 50 50;" xml:space="preserve">
<style type="text/css">
	.st0{fill:#506A66;}
	.st1{fill:#DBE1E0;}
	.st2{fill-rule:evenodd;clip-rule:evenodd;fill:#506A66;}
</style>
<g>
	<path class="st0" d="M25,19.7c-2.93,0-5.3,2.37-5.3,5.3c0,2.93,2.37,5.3,5.3,5.3c2.93,0,5.3-2.37,5.3-5.3
		C30.3,22.07,27.93,19.7,25,19.7z M24.96,28.47c-1.89,0-3.43-1.54-3.43-3.43c0-1.89,1.54-3.43,3.43-3.43c1.89,0,3.43,1.54,3.43,3.43
		C28.39,26.93,26.86,28.47,24.96,28.47z"/>
	<path class="st0" d="M34.11,17.04c-0.7-1.01-1.76-1.73-2.95-2.03c-0.57-0.15-1.25-0.26-1.89-0.29c-1.42-0.06-2.85-0.07-4.28-0.07
		c-1.43,0-2.86,0.01-4.28,0.07c-0.63,0.03-1.31,0.14-1.89,0.29c-1.18,0.3-2.24,1.02-2.95,2.03c-0.97,1.39-1.05,2.67-1.13,4.07
		c-0.07,1.19-0.07,2.41-0.05,3.6c0.02,1.23,0,2.43,0.03,3.65c0.02,0.69,0.04,1.4,0.15,2.08c0.21,1.29,0.65,2.27,1.61,3.23
		c0.82,0.82,1.99,1.35,3.26,1.53c0.86,0.12,2.25,0.16,4.15,0.16c0.36,0,0.73,0,1.1,0c0.37,0,0.73,0,1.1,0c1.9,0,3.29-0.03,4.15-0.16
		c1.27-0.18,2.44-0.71,3.26-1.53c0.96-0.96,1.4-1.93,1.61-3.23c0.11-0.68,0.13-1.39,0.15-2.08c0.03-1.23,0.01-2.43,0.03-3.65
		c0.02-1.19,0.03-2.41-0.05-3.6C35.16,19.71,35.08,18.43,34.11,17.04z M33.56,27.65c0,0.63-0.04,2.21-0.22,2.74
		c-0.37,1.7-1.51,2.6-2.94,2.89c-0.95,0.21-2.64,0.19-3.27,0.2h-4.16c-0.63-0.01-2.32,0.01-3.27-0.2c-1.43-0.3-2.56-1.19-2.94-2.89
		c-0.18-0.52-0.22-2.11-0.22-2.74v-5.32c0-0.63,0.04-2.21,0.22-2.74c0.37-1.7,1.51-2.6,2.94-2.89c0.95-0.21,2.64-0.19,3.27-0.2h4.16
		c0.63,0.01,2.32-0.01,3.27,0.2c1.43,0.3,2.56,1.19,2.94,2.89c0.18,0.52,0.22,2.11,0.22,2.74V27.65z"/>
	<circle class="st0" cx="30.55" cy="19.48" r="1.18"/>
</g>
</svg>
