<?xml version="1.0" encoding="utf-8"?>
<!-- Generator: Adobe Illustrator 26.0.3, SVG Export Plug-In . SVG Version: 6.00 Build 0)  -->
<svg version="1.1" id="Layer_1" xmlns="http://www.w3.org/2000/svg" xmlns:xlink="http://www.w3.org/1999/xlink" x="0px" y="0px"
	 viewBox="0 0 50 50" style="enable-background:new 0 0 50 50;" xml:space="preserve">
<style type="text/css">
	.st0{fill:#506A66;}
	.st1{fill:#DBE1E0;}
	.st2{fill-rule:evenodd;clip-rule:evenodd;fill:#506A66;}
</style>
<g>
	<path class="st0" d="M34.5,40.8H15.5c-3.48,0-6.3-2.82-6.3-6.3V15.5c0-3.48,2.82-6.3,6.3-6.3H34.5c3.48,0,6.3,2.82,6.3,6.3V34.5
		C40.8,37.98,37.98,40.8,34.5,40.8z"/>
	<g id="Mail_2_00000036941286296513576950000006834618717686705812_">
		<g>
			<path class="st1" d="M32.33,17.97H17.67c-1.35,0-2.44,1.1-2.44,2.44v9.16c0,1.35,1.1,2.44,2.44,2.44h14.67
				c1.35,0,2.44-1.1,2.44-2.44v-9.16C34.78,19.07,33.68,17.97,32.33,17.97z M33.55,29.58c0,0.67-0.55,1.22-1.22,1.22H17.67
				c-0.67,0-1.22-0.55-1.22-1.22v-9.16c0-0.67,0.55-1.22,1.22-1.22h14.67c0.67,0,1.22,0.55,1.22,1.22V29.58z"/>
			<path class="st1" d="M32.19,21.25c-0.21-0.26-0.6-0.3-0.86-0.09L25,26.35l-6.33-5.18c-0.26-0.21-0.65-0.18-0.86,0.09
				c-0.21,0.26-0.18,0.65,0.09,0.86l6.72,5.5c0.11,0.09,0.25,0.14,0.39,0.14s0.27-0.05,0.39-0.14l6.72-5.5
				C32.37,21.9,32.41,21.51,32.19,21.25z"/>
			<path class="st1" d="M29.71,26.1c-0.24-0.24-0.63-0.24-0.86,0c-0.24,0.24-0.24,0.63,0,0.86l2.44,2.44
				c0.12,0.12,0.28,0.18,0.43,0.18c0.16,0,0.31-0.06,0.43-0.18c0.24-0.24,0.24-0.63,0-0.86L29.71,26.1z"/>
			<path class="st1" d="M20.29,26.1l-2.44,2.44c-0.24,0.24-0.24,0.63,0,0.86c0.12,0.12,0.28,0.18,0.43,0.18
				c0.16,0,0.31-0.06,0.43-0.18l2.44-2.44c0.24-0.24,0.24-0.63,0-0.86C20.92,25.86,20.53,25.86,20.29,26.1z"/>
		</g>
	</g>
</g>
</svg>
