<?xml version="1.0" encoding="utf-8"?>
<!-- Generator: Adobe Illustrator 26.0.3, SVG Export Plug-In . SVG Version: 6.00 Build 0)  -->
<svg version="1.1" id="Layer_1" xmlns="http://www.w3.org/2000/svg" xmlns:xlink="http://www.w3.org/1999/xlink" x="0px" y="0px"
	 viewBox="0 0 50 50" style="enable-background:new 0 0 50 50;" xml:space="preserve">
<style type="text/css">
	.st0{fill:#506A66;}
	.st1{fill:#DBE1E0;}
	.st2{fill-rule:evenodd;clip-rule:evenodd;fill:#506A66;}
</style>
<path id="Web_00000009587088810835148550000013812716997641172408_" class="st0" d="M35.17,32.01c1.38-1.99,2.19-4.41,2.19-7.01
	c0-6.82-5.54-12.36-12.36-12.36c-4.4,0-8.26,2.32-10.45,5.8c-0.02,0.02-0.04,0.03-0.06,0.06c-0.02,0.04-0.03,0.08-0.05,0.11
	c-1.14,1.87-1.8,4.05-1.8,6.4c0,2.6,0.81,5.01,2.19,7.01c0,0.01,0,0.02,0.01,0.03c0.01,0.02,0.03,0.03,0.04,0.05
	c2.24,3.19,5.93,5.28,10.12,5.28c4.15,0,7.82-2.07,10.07-5.21c0.03-0.04,0.07-0.07,0.09-0.11C35.17,32.02,35.17,32.01,35.17,32.01z
	 M34.25,30.57c-1.51-0.87-3.13-1.52-4.81-1.93c0.13-1.18,0.19-2.41,0.19-3.64c0-0.97-0.04-1.94-0.12-2.88
	c1.78-0.45,3.49-1.16,5.07-2.11c0.78,1.5,1.23,3.19,1.23,5C35.81,27.04,35.24,28.94,34.25,30.57z M25,35.81
	c-0.91,0-2.12-2.22-2.72-5.95c0.9-0.14,1.8-0.23,2.72-0.23c0.92,0,1.83,0.08,2.72,0.23C27.12,33.59,25.91,35.81,25,35.81z M25,28.09
	c-0.99,0-1.96,0.09-2.92,0.24c-0.11-1.03-0.17-2.14-0.17-3.33c0-0.9,0.04-1.76,0.1-2.57c0.98,0.16,1.98,0.25,2.99,0.25
	c1.01,0,2.01-0.09,2.99-0.25c0.06,0.81,0.1,1.66,0.1,2.57c0,1.19-0.06,2.3-0.17,3.33C26.96,28.18,25.99,28.09,25,28.09z M25,14.19
	c0.97,0,2.28,2.52,2.83,6.71c-0.93,0.16-1.87,0.24-2.83,0.24c-0.96,0-1.9-0.09-2.83-0.24C22.72,16.71,24.03,14.19,25,14.19z
	 M33.77,18.69c-1.38,0.84-2.87,1.46-4.42,1.87c-0.32-2.44-0.93-4.61-1.79-6.06C30.1,15.12,32.28,16.63,33.77,18.69z M22.44,14.5
	c-0.86,1.45-1.47,3.62-1.79,6.06c-1.55-0.41-3.03-1.04-4.42-1.87C17.72,16.63,19.9,15.12,22.44,14.5z M15.42,20
	c1.58,0.96,3.29,1.67,5.07,2.11c-0.08,0.95-0.12,1.91-0.12,2.88c0,1.23,0.07,2.46,0.19,3.64c-1.68,0.41-3.3,1.06-4.81,1.93
	c-0.99-1.63-1.56-3.53-1.56-5.57C14.19,23.2,14.63,21.5,15.42,20z M16.63,31.84c1.3-0.74,2.69-1.29,4.13-1.66
	c0.34,2.13,0.9,4.01,1.68,5.32C20.13,34.93,18.1,33.63,16.63,31.84z M27.56,35.5c0.78-1.3,1.34-3.18,1.68-5.32
	c1.44,0.37,2.83,0.93,4.13,1.66C31.9,33.63,29.87,34.93,27.56,35.5z"/>
</svg>
