<?xml version="1.0" encoding="utf-8"?>
<!-- Generator: Adobe Illustrator 26.0.3, SVG Export Plug-In . SVG Version: 6.00 Build 0)  -->
<svg version="1.1" id="Layer_1" xmlns="http://www.w3.org/2000/svg" xmlns:xlink="http://www.w3.org/1999/xlink" x="0px" y="0px"
	 viewBox="0 0 50 50" style="enable-background:new 0 0 50 50;" xml:space="preserve">
<style type="text/css">
	.st0{fill:#506A66;}
	.st1{fill:#DBE1E0;}
	.st2{fill-rule:evenodd;clip-rule:evenodd;fill:#506A66;}
</style>
<g>
	<path class="st0" d="M34.5,40.8H15.5c-3.48,0-6.3-2.82-6.3-6.3V15.5c0-3.48,2.82-6.3,6.3-6.3H34.5c3.48,0,6.3,2.82,6.3,6.3V34.5
		C40.8,37.98,37.98,40.8,34.5,40.8z"/>
	<g id="Phone_00000141452955860365184290000009856530107896953249_">
		<g>
			<path class="st1" d="M33.42,24.06c-1.49-3.42-4.16-6.08-7.53-7.49c-0.28-0.12-0.6,0.02-0.71,0.31c-0.11,0.29,0.02,0.62,0.3,0.74
				c3.1,1.3,5.57,3.75,6.94,6.91c0.09,0.21,0.29,0.33,0.5,0.33c0.07,0,0.15-0.02,0.22-0.05C33.42,24.68,33.55,24.35,33.42,24.06z"/>
			<path class="st1" d="M25.19,20.64c1.88,0.79,3.38,2.27,4.21,4.18c0.09,0.2,0.28,0.32,0.48,0.32c0.07,0,0.15-0.02,0.22-0.05
				c0.27-0.12,0.39-0.45,0.27-0.72c-0.95-2.17-2.64-3.85-4.78-4.74c-0.27-0.11-0.58,0.02-0.69,0.3
				C24.79,20.2,24.92,20.52,25.19,20.64z"/>
			<path class="st1" d="M30.54,27.23c-0.3-0.3-0.64-0.45-0.98-0.45s-0.68,0.15-0.97,0.45c-0.46,0.45-0.91,0.91-1.36,1.37
				c-0.08,0.08-0.14,0.12-0.22,0.12c-0.05,0-0.1-0.02-0.16-0.05c-0.3-0.16-0.61-0.29-0.89-0.47c-1.32-0.83-2.43-1.9-3.41-3.11
				c-0.49-0.6-0.92-1.24-1.22-1.96c-0.06-0.15-0.05-0.24,0.07-0.36c0.46-0.44,0.9-0.89,1.35-1.35c0.63-0.63,0.63-1.37,0-2
				c-0.36-0.36-0.71-0.71-1.07-1.07c-0.37-0.37-0.73-0.74-1.1-1.1c-0.3-0.29-0.64-0.44-0.98-0.44c-0.34,0-0.68,0.15-0.98,0.44
				c-0.46,0.45-0.9,0.92-1.37,1.36c-0.43,0.41-0.65,0.91-0.7,1.5c-0.07,0.96,0.16,1.86,0.49,2.73c0.67,1.82,1.7,3.43,2.95,4.91
				c1.68,2,3.69,3.59,6.04,4.73c1.06,0.51,2.16,0.91,3.35,0.97c0.07,0,0.14,0.01,0.21,0.01c0.73,0,1.37-0.22,1.89-0.81
				c0.39-0.44,0.83-0.84,1.25-1.25c0.61-0.62,0.62-1.37,0.01-1.99C32.01,28.69,31.28,27.96,30.54,27.23z M31.94,30.63
				c-0.14,0.14-0.28,0.27-0.42,0.41c-0.29,0.28-0.59,0.57-0.87,0.89c-0.27,0.31-0.59,0.44-1.06,0.44c-0.05,0-0.1,0-0.15,0
				c-0.89-0.05-1.79-0.32-2.92-0.86c-2.18-1.06-4.09-2.56-5.68-4.45c-1.27-1.51-2.17-3.01-2.76-4.59c-0.34-0.91-0.47-1.61-0.42-2.26
				c0.03-0.33,0.14-0.57,0.36-0.78c0.29-0.27,0.57-0.56,0.85-0.84c0.18-0.18,0.35-0.36,0.54-0.54c0.1-0.1,0.17-0.12,0.2-0.12
				c0.03,0,0.1,0.03,0.2,0.12c0.24,0.24,0.49,0.48,0.73,0.73l0.37,0.37c0.18,0.18,0.36,0.37,0.54,0.55
				c0.18,0.18,0.35,0.35,0.53,0.53c0.2,0.21,0.19,0.24,0,0.43l-0.19,0.19c-0.38,0.38-0.76,0.77-1.16,1.15
				c-0.43,0.43-0.55,1.01-0.31,1.58c0.31,0.74,0.75,1.45,1.39,2.23c1.16,1.42,2.36,2.51,3.69,3.35c0.22,0.14,0.44,0.24,0.63,0.34
				c0.11,0.05,0.21,0.1,0.3,0.15c0.23,0.13,0.46,0.19,0.7,0.19c0.26,0,0.65-0.08,1.01-0.45c0.44-0.45,0.88-0.89,1.35-1.35
				c0.1-0.1,0.17-0.12,0.19-0.12c0.02,0,0.1,0.03,0.19,0.12c0.73,0.73,1.46,1.45,2.19,2.19C32.12,30.37,32.14,30.43,31.94,30.63z"/>
		</g>
	</g>
</g>
</svg>
