<?xml version="1.0" encoding="utf-8"?>
<!-- Generator: Adobe Illustrator 26.0.3, SVG Export Plug-In . SVG Version: 6.00 Build 0)  -->
<svg version="1.1" id="Layer_1" xmlns="http://www.w3.org/2000/svg" xmlns:xlink="http://www.w3.org/1999/xlink" x="0px" y="0px"
	 viewBox="0 0 50 50" style="enable-background:new 0 0 50 50;" xml:space="preserve">
<style type="text/css">
	.st0{fill:#506A66;}
	.st1{fill:#DBE1E0;}
	.st2{fill-rule:evenodd;clip-rule:evenodd;fill:#506A66;}
</style>
<g>
	<path class="st0" d="M34.5,40.8H15.5c-3.48,0-6.3-2.82-6.3-6.3V15.5c0-3.48,2.82-6.3,6.3-6.3H34.5c3.48,0,6.3,2.82,6.3,6.3V34.5
		C40.8,37.98,37.98,40.8,34.5,40.8z"/>
	<path class="st1" d="M25.77,16.46c-6.89-0.12-7.37,5.62-7.37,5.62c-0.23,2.75,1.12,3.72,1.76,4.14c0.63,0.42,0.73-0.14,0.73-0.14
		s0.24-0.81,0.23-1c-0.01-0.18-0.28-0.48-0.28-0.48c-1.02-1.25-0.24-3.5-0.24-3.5c1.28-3.18,4.5-2.99,4.5-2.99
		c3.32-0.03,3.95,2.48,3.95,2.48s0.58,2.05-0.29,4.2c-0.88,2.16-2.25,2.36-2.65,2.33c-0.41-0.02-0.87-0.11-1.34-0.68
		c-0.47-0.57-0.13-1.55-0.13-1.55l0.45-1.56c0.85-2.52-0.16-2.98-0.86-3.07c-0.71-0.1-1.55,0.41-1.91,1.66
		c-0.36,1.25,0.2,2.41,0.2,2.41l-1.35,5.73c-0.19,1.32-0.02,3.1,0.05,3.35c0.07,0.25,0.25,0.05,0.25,0.05
		c1.16-1.38,1.67-2.92,1.67-2.92c0.07-0.12,0.77-2.97,0.77-2.97c0.89,1.49,2.89,1.22,2.89,1.22c4.82-0.71,4.81-6.38,4.81-6.38
		C31.55,16.6,25.77,16.46,25.77,16.46z"/>
</g>
</svg>
