<?xml version="1.0" encoding="utf-8"?>
<!-- Generator: Adobe Illustrator 26.0.3, SVG Export Plug-In . SVG Version: 6.00 Build 0)  -->
<svg version="1.1" id="Layer_1" xmlns="http://www.w3.org/2000/svg" xmlns:xlink="http://www.w3.org/1999/xlink" x="0px" y="0px"
	 viewBox="0 0 50 50" style="enable-background:new 0 0 50 50;" xml:space="preserve">
<style type="text/css">
	.st0{fill:#506A66;}
	.st1{fill:#DBE1E0;}
	.st2{fill-rule:evenodd;clip-rule:evenodd;fill:#506A66;}
</style>
<g>
	<path class="st0" d="M34.5,40.8H15.5c-3.48,0-6.3-2.82-6.3-6.3V15.5c0-3.48,2.82-6.3,6.3-6.3H34.5c3.48,0,6.3,2.82,6.3,6.3V34.5
		C40.8,37.98,37.98,40.8,34.5,40.8z"/>
	<g>
		<g>
			<path class="st1" d="M25.05,16.53c-2.24,0-4.34,0.87-5.92,2.45c-1.58,1.58-2.45,3.69-2.45,5.92c0,1.48,0.38,2.9,1.11,4.17
				l-0.54,1.96l-0.67,2.43l2.44-0.65l2.05-0.55c1.22,0.66,2.58,1.01,3.98,1.01c2.24,0,4.34-0.87,5.92-2.45
				c1.58-1.58,2.45-3.69,2.45-5.92s-0.87-4.34-2.45-5.92C29.39,17.4,27.29,16.53,25.05,16.53z M25.05,31.83
				c-1.39,0-2.68-0.41-3.77-1.11l-2.64,0.7l0.71-2.58c-0.77-1.12-1.23-2.47-1.23-3.94c0-3.83,3.1-6.93,6.93-6.93
				c3.83,0,6.93,3.1,6.93,6.93C31.98,28.73,28.87,31.83,25.05,31.83z"/>
			<path class="st1" d="M29.02,26.74l-1.59-0.75c-0.31-0.15-0.46,0.08-0.46,0.08l-0.7,0.87c-0.13,0.12-0.3,0.06-0.3,0.06
				c-2.02-0.75-2.94-2.52-2.94-2.52c-0.15-0.21,0.04-0.4,0.04-0.4s0.24-0.23,0.46-0.55c0.22-0.32,0.1-0.54,0.1-0.54
				s-0.52-1.24-0.67-1.59c-0.15-0.35-0.44-0.33-0.44-0.33s-0.07,0-0.41,0c-0.31,0-0.54,0.24-0.54,0.24
				c-0.8,0.71-0.74,1.73-0.74,1.73c0,1.33,1.52,3.09,1.52,3.09c2.18,2.7,4.98,2.79,4.98,2.79c0.77,0.01,1.54-0.47,1.77-0.94
				c0.23-0.47,0.21-1,0.18-1.07C29.23,26.84,29.02,26.74,29.02,26.74z"/>
		</g>
	</g>
</g>
</svg>
