<?xml version="1.0" encoding="utf-8"?>
<!-- Generator: Adobe Illustrator 26.0.3, SVG Export Plug-In . SVG Version: 6.00 Build 0)  -->
<svg version="1.1" id="Layer_1" xmlns="http://www.w3.org/2000/svg" xmlns:xlink="http://www.w3.org/1999/xlink" x="0px" y="0px"
	 viewBox="0 0 50 50" style="enable-background:new 0 0 50 50;" xml:space="preserve">
<style type="text/css">
	.st0{fill:#506A66;}
	.st1{fill:#DBE1E0;}
	.st2{fill-rule:evenodd;clip-rule:evenodd;fill:#506A66;}
</style>
<g>
	<path class="st0" d="M34.5,40.8H15.5c-3.48,0-6.3-2.82-6.3-6.3V15.5c0-3.48,2.82-6.3,6.3-6.3H34.5c3.48,0,6.3,2.82,6.3,6.3V34.5
		C40.8,37.98,37.98,40.8,34.5,40.8z"/>
	<path id="Web_00000039117265259217304960000006450311765751296926_" class="st1" d="M31.97,29.8c0.94-1.37,1.5-3.02,1.5-4.8
		c0-4.67-3.8-8.47-8.47-8.47c-3.02,0-5.66,1.59-7.16,3.97c-0.01,0.01-0.03,0.02-0.04,0.04c-0.02,0.02-0.02,0.05-0.03,0.08
		c-0.78,1.28-1.24,2.78-1.24,4.38c0,1.78,0.56,3.44,1.5,4.8c0,0.01,0,0.01,0.01,0.02c0.01,0.01,0.02,0.02,0.03,0.03
		c1.53,2.19,4.07,3.62,6.93,3.62c2.85,0,5.36-1.42,6.9-3.57c0.02-0.02,0.05-0.05,0.06-0.08C31.97,29.81,31.97,29.81,31.97,29.8z
		 M31.34,28.82c-1.03-0.6-2.14-1.04-3.3-1.33c0.09-0.81,0.13-1.65,0.13-2.49c0-0.66-0.03-1.33-0.08-1.98
		c1.22-0.31,2.39-0.79,3.47-1.45c0.54,1.03,0.84,2.19,0.84,3.42C32.41,26.4,32.01,27.7,31.34,28.82z M25,32.41
		c-0.63,0-1.45-1.52-1.86-4.08c0.61-0.1,1.24-0.15,1.86-0.15c0.63,0,1.25,0.06,1.86,0.15C26.45,30.89,25.63,32.41,25,32.41z
		 M25,27.12c-0.68,0-1.34,0.06-2,0.16c-0.07-0.7-0.11-1.46-0.11-2.28c0-0.62,0.03-1.2,0.07-1.76c0.67,0.11,1.36,0.17,2.05,0.17
		c0.69,0,1.38-0.06,2.05-0.17c0.04,0.55,0.07,1.14,0.07,1.76c0,0.82-0.04,1.58-0.11,2.28C26.34,27.18,25.68,27.12,25,27.12z
		 M25,17.59c0.67,0,1.56,1.73,1.94,4.6c-0.64,0.11-1.28,0.17-1.94,0.17c-0.66,0-1.3-0.06-1.94-0.17
		C23.44,19.32,24.33,17.59,25,17.59z M31.01,20.68c-0.95,0.57-1.97,1-3.03,1.28c-0.22-1.67-0.64-3.16-1.23-4.15
		C28.49,18.23,29.99,19.27,31.01,20.68z M23.25,17.81c-0.59,1-1.01,2.48-1.23,4.15c-1.06-0.28-2.08-0.71-3.03-1.28
		C20.01,19.27,21.51,18.23,23.25,17.81z M18.43,21.58c1.09,0.66,2.25,1.14,3.47,1.45c-0.05,0.65-0.08,1.31-0.08,1.97
		c0,0.84,0.05,1.68,0.13,2.49c-1.15,0.28-2.26,0.73-3.3,1.33c-0.68-1.12-1.07-2.42-1.07-3.82C17.59,23.76,17.9,22.6,18.43,21.58z
		 M19.27,29.69c0.89-0.51,1.84-0.89,2.83-1.14c0.23,1.46,0.62,2.75,1.15,3.64C21.66,31.81,20.27,30.91,19.27,29.69z M26.75,32.19
		c0.53-0.89,0.92-2.18,1.15-3.64c0.99,0.25,1.94,0.64,2.83,1.14C29.73,30.91,28.34,31.81,26.75,32.19z"/>
</g>
</svg>
