<?xml version="1.0" encoding="utf-8"?>
<!-- Generator: Adobe Illustrator 26.0.3, SVG Export Plug-In . SVG Version: 6.00 Build 0)  -->
<svg version="1.1" id="Layer_1" xmlns="http://www.w3.org/2000/svg" xmlns:xlink="http://www.w3.org/1999/xlink" x="0px" y="0px"
	 viewBox="0 0 50 50" style="enable-background:new 0 0 50 50;" xml:space="preserve">
<style type="text/css">
	.st0{fill:#506A66;}
	.st1{fill:#DBE1E0;}
	.st2{fill-rule:evenodd;clip-rule:evenodd;fill:#506A66;}
</style>
<g>
	<path class="st0" d="M31.35,40.39H18.65c-0.29,0-0.53-0.24-0.53-0.53V21.18c0-0.29,0.24-0.53,0.53-0.53c0.29,0,0.53,0.24,0.53,0.53
		v18.15h11.64v-18.2c0-0.29,0.24-0.53,0.53-0.53c0.29,0,0.53,0.24,0.53,0.53v18.73C31.88,40.16,31.64,40.39,31.35,40.39z"/>
	<path class="st0" d="M32.53,22.27c-0.08,0-0.16-0.02-0.24-0.06L25,18.57l-7.29,3.64c-0.16,0.08-0.36,0.07-0.51-0.02
		c-0.16-0.1-0.25-0.27-0.25-0.45v-2.3c0-0.2,0.11-0.38,0.29-0.47l7.53-3.76c0.15-0.07,0.32-0.07,0.47,0l7.53,3.76
		c0.18,0.09,0.29,0.27,0.29,0.47v2.3c0,0.18-0.1,0.35-0.25,0.45C32.72,22.24,32.63,22.27,32.53,22.27z M25,17.45
		c0.08,0,0.16,0.02,0.24,0.06L32,20.88v-1.11l-7-3.49l-7,3.49v1.11l6.76-3.37C24.84,17.47,24.92,17.45,25,17.45z"/>
	<path class="st0" d="M40.25,18.27H29.13c-0.08,0-0.16-0.02-0.24-0.06L25,16.27l-3.89,1.94c-0.07,0.04-0.15,0.06-0.24,0.06H9.75
		c-0.29,0-0.53-0.24-0.53-0.53v-7.61c0-0.29,0.24-0.53,0.53-0.53h30.51c0.29,0,0.53,0.24,0.53,0.53v7.61
		C40.78,18.03,40.55,18.27,40.25,18.27z M29.25,17.21h10.47v-6.55H10.28v6.55h10.47l4.01-2c0.15-0.07,0.32-0.07,0.47,0L29.25,17.21z
		"/>
	<path class="st0" d="M39.15,40.39H10.85c-0.29,0-0.53-0.24-0.53-0.53V17.74c0-0.29,0.24-0.53,0.53-0.53h10.02
		c0.25,0,0.46,0.17,0.52,0.41c0.06,0.24-0.06,0.49-0.28,0.6L18,19.77v1.11l6.76-3.37c0.15-0.07,0.32-0.07,0.47,0L32,20.88v-1.11
		l-3.11-1.55c-0.22-0.11-0.34-0.36-0.28-0.6c0.06-0.24,0.27-0.41,0.52-0.41h10.02c0.29,0,0.53,0.24,0.53,0.53v22.12
		C39.68,40.16,39.44,40.39,39.15,40.39z M11.38,39.33h27.23V18.27h-7.24l1.39,0.7c0.18,0.09,0.29,0.27,0.29,0.47v2.3
		c0,0.18-0.1,0.35-0.25,0.45c-0.16,0.1-0.35,0.1-0.51,0.02L25,18.57l-7.29,3.64c-0.16,0.08-0.36,0.07-0.51-0.02
		c-0.16-0.1-0.25-0.27-0.25-0.45v-2.3c0-0.2,0.11-0.38,0.29-0.47l1.39-0.7h-7.24V39.33z"/>
	<path class="st0" d="M27.77,40.39h-5.55c-0.29,0-0.53-0.24-0.53-0.53v-8.03c0-0.29,0.24-0.53,0.53-0.53h5.55
		c0.29,0,0.53,0.24,0.53,0.53v8.03C28.3,40.16,28.07,40.39,27.77,40.39z M22.75,39.33h4.49v-6.97h-4.49V39.33z"/>
	<path class="st0" d="M39.15,33.68h-7.8c-0.29,0-0.53-0.24-0.53-0.53v-2.86c0-0.29,0.24-0.53,0.53-0.53h7.8
		c0.29,0,0.53,0.24,0.53,0.53v2.86C39.68,33.44,39.44,33.68,39.15,33.68z M31.88,32.62h6.74v-1.8h-6.74V32.62z"/>
	<path class="st0" d="M18.65,33.68h-7.8c-0.29,0-0.53-0.24-0.53-0.53v-2.86c0-0.29,0.24-0.53,0.53-0.53h7.8
		c0.29,0,0.53,0.24,0.53,0.53v2.86C19.18,33.44,18.95,33.68,18.65,33.68z M11.38,32.62h6.74v-1.8h-6.74V32.62z"/>
	<path class="st0" d="M28.21,28.13h-6.41c-0.29,0-0.53-0.24-0.53-0.53v-1.72c0-2.06,1.68-3.74,3.74-3.74c2.06,0,3.74,1.68,3.74,3.74
		v1.72C28.74,27.89,28.5,28.13,28.21,28.13z M22.32,27.07h5.35v-1.19c0-1.48-1.2-2.68-2.68-2.68c-1.48,0-2.68,1.2-2.68,2.68V27.07z"
		/>
	<path class="st0" d="M20.8,13.38H9.75c-0.29,0-0.53-0.24-0.53-0.53c0-0.29,0.24-0.53,0.53-0.53H20.8c0.29,0,0.53,0.24,0.53,0.53
		C21.33,13.14,21.09,13.38,20.8,13.38z"/>
	<path class="st0" d="M17.89,15.83H9.75c-0.29,0-0.53-0.24-0.53-0.53c0-0.29,0.24-0.53,0.53-0.53h8.14c0.29,0,0.53,0.24,0.53,0.53
		C18.42,15.59,18.18,15.83,17.89,15.83z"/>
	<path class="st0" d="M14.59,27.9h-3.74c-0.29,0-0.53-0.24-0.53-0.53v-4.69c0-0.29,0.24-0.53,0.53-0.53h3.74
		c0.29,0,0.53,0.24,0.53,0.53v4.69C15.12,27.66,14.88,27.9,14.59,27.9z M11.38,26.84h2.68V23.2h-2.68V26.84z"/>
	<path class="st0" d="M39.15,27.9h-3.74c-0.29,0-0.53-0.24-0.53-0.53v-4.69c0-0.29,0.24-0.53,0.53-0.53h3.74
		c0.29,0,0.53,0.24,0.53,0.53v4.69C39.68,27.66,39.44,27.9,39.15,27.9z M35.94,26.84h2.68V23.2h-2.68V26.84z"/>
	<path class="st0" d="M40.92,40.39H9.08c-0.29,0-0.53-0.24-0.53-0.53c0-0.29,0.24-0.53,0.53-0.53h31.84c0.29,0,0.53,0.24,0.53,0.53
		C41.45,40.16,41.21,40.39,40.92,40.39z"/>
</g>
</svg>
