<?xml version="1.0" encoding="utf-8"?>
<!-- Generator: Adobe Illustrator 26.0.3, SVG Export Plug-In . SVG Version: 6.00 Build 0)  -->
<svg version="1.1" id="Layer_1" xmlns="http://www.w3.org/2000/svg" xmlns:xlink="http://www.w3.org/1999/xlink" x="0px" y="0px"
	 viewBox="0 0 50 50" style="enable-background:new 0 0 50 50;" xml:space="preserve">
<style type="text/css">
	.st0{fill:#506A66;}
	.st1{fill:#DBE1E0;}
	.st2{fill-rule:evenodd;clip-rule:evenodd;fill:#506A66;}
</style>
<g>
	<path class="st0" d="M30.08,44.26H19.92c-0.36,0-0.65-0.29-0.65-0.65V6.39c0-0.36,0.29-0.65,0.65-0.65h10.16
		c0.36,0,0.65,0.29,0.65,0.65v37.21C30.73,43.96,30.44,44.26,30.08,44.26z M20.57,42.95h8.86V7.05h-8.86V42.95z"/>
	<path class="st0" d="M23.23,39.7c-0.36,0-0.65-0.29-0.65-0.65V9.47c0-0.36,0.29-0.65,0.65-0.65s0.65,0.29,0.65,0.65v29.58
		C23.88,39.41,23.59,39.7,23.23,39.7z"/>
	<path class="st0" d="M30.08,44.26H19.92c-0.36,0-0.65-0.29-0.65-0.65V6.39c0-0.36,0.29-0.65,0.65-0.65h10.16
		c0.36,0,0.65,0.29,0.65,0.65v37.21C30.73,43.96,30.44,44.26,30.08,44.26z M20.57,42.95h8.86V7.05h-8.86V42.95z"/>
	<path class="st0" d="M34.66,44.26h-4.58c-0.36,0-0.65-0.29-0.65-0.65V15.05c0-0.26,0.15-0.49,0.38-0.59
		c0.23-0.1,0.51-0.06,0.7,0.11l4.58,4.08c0.14,0.12,0.22,0.3,0.22,0.49v24.48C35.31,43.96,35.02,44.26,34.66,44.26z M30.73,42.95
		h3.28V19.42l-3.28-2.92V42.95z"/>
	<path class="st0" d="M34.66,44.26h-4.58c-0.36,0-0.65-0.29-0.65-0.65V15.05c0-0.26,0.15-0.49,0.38-0.59
		c0.23-0.1,0.51-0.06,0.7,0.11l4.58,4.08c0.14,0.12,0.22,0.3,0.22,0.49v24.48C35.31,43.96,35.02,44.26,34.66,44.26z M30.73,42.95
		h3.28V19.42l-3.28-2.92V42.95z"/>
	<path class="st0" d="M39.24,44.26h-4.58c-0.36,0-0.65-0.29-0.65-0.65V22.42c0-0.26,0.15-0.49,0.38-0.59
		c0.23-0.11,0.51-0.06,0.7,0.11l4.58,4.07c0.14,0.12,0.22,0.3,0.22,0.49v17.11C39.9,43.96,39.6,44.26,39.24,44.26z M35.31,42.95
		h3.28V26.79l-3.28-2.92V42.95z"/>
	<path class="st0" d="M39.24,44.26h-4.58c-0.36,0-0.65-0.29-0.65-0.65V22.42c0-0.26,0.15-0.49,0.38-0.59
		c0.23-0.11,0.51-0.06,0.7,0.11l4.58,4.07c0.14,0.12,0.22,0.3,0.22,0.49v17.11C39.9,43.96,39.6,44.26,39.24,44.26z M35.31,42.95
		h3.28V26.79l-3.28-2.92V42.95z"/>
	<path class="st0" d="M19.92,44.26h-4.58c-0.36,0-0.65-0.29-0.65-0.65V19.13c0-0.19,0.08-0.36,0.22-0.49l4.58-4.08
		c0.19-0.17,0.47-0.21,0.7-0.11c0.23,0.1,0.38,0.34,0.38,0.59v28.55C20.57,43.96,20.28,44.26,19.92,44.26z M15.99,42.95h3.28V16.5
		l-3.28,2.92V42.95z"/>
	<path class="st0" d="M19.92,44.26h-4.58c-0.36,0-0.65-0.29-0.65-0.65V19.13c0-0.19,0.08-0.36,0.22-0.49l4.58-4.08
		c0.19-0.17,0.47-0.21,0.7-0.11c0.23,0.1,0.38,0.34,0.38,0.59v28.55C20.57,43.96,20.28,44.26,19.92,44.26z M15.99,42.95h3.28V16.5
		l-3.28,2.92V42.95z"/>
	<path class="st0" d="M15.34,44.26h-4.58c-0.36,0-0.65-0.29-0.65-0.65V26.49c0-0.19,0.08-0.36,0.22-0.49l4.58-4.07
		c0.19-0.17,0.47-0.21,0.7-0.11c0.23,0.1,0.38,0.34,0.38,0.59v21.19C15.99,43.96,15.7,44.26,15.34,44.26z M11.41,42.95h3.28V23.87
		l-3.28,2.92V42.95z"/>
	<path class="st0" d="M15.34,44.26h-4.58c-0.36,0-0.65-0.29-0.65-0.65V26.49c0-0.19,0.08-0.36,0.22-0.49l4.58-4.07
		c0.19-0.17,0.47-0.21,0.7-0.11c0.23,0.1,0.38,0.34,0.38,0.59v21.19C15.99,43.96,15.7,44.26,15.34,44.26z M11.41,42.95h3.28V23.87
		l-3.28,2.92V42.95z"/>
	<path class="st0" d="M26.77,39.7c-0.36,0-0.65-0.29-0.65-0.65V9.47c0-0.36,0.29-0.65,0.65-0.65c0.36,0,0.65,0.29,0.65,0.65v29.58
		C27.42,39.41,27.13,39.7,26.77,39.7z"/>
	<path class="st0" d="M39.98,44.26H10.02c-0.36,0-0.65-0.29-0.65-0.65c0-0.36,0.29-0.65,0.65-0.65h29.96c0.36,0,0.65,0.29,0.65,0.65
		C40.63,43.96,40.34,44.26,39.98,44.26z"/>
</g>
</svg>
