<?xml version="1.0" encoding="utf-8"?>
<!-- Generator: Adobe Illustrator 26.0.3, SVG Export Plug-In . SVG Version: 6.00 Build 0)  -->
<svg version="1.1" id="Layer_1" xmlns="http://www.w3.org/2000/svg" xmlns:xlink="http://www.w3.org/1999/xlink" x="0px" y="0px"
	 viewBox="0 0 50 50" style="enable-background:new 0 0 50 50;" xml:space="preserve">
<style type="text/css">
	.st0{fill:#506A66;}
	.st1{fill:#DBE1E0;}
	.st2{fill-rule:evenodd;clip-rule:evenodd;fill:#506A66;}
</style>
<g>
	<path class="st0" d="M28.63,43.6H9.29c-0.35,0-0.63-0.28-0.63-0.63V10.02c0-0.35,0.28-0.63,0.63-0.63h19.35
		c0.35,0,0.63,0.28,0.63,0.63v32.96C29.26,43.32,28.98,43.6,28.63,43.6z M9.92,42.34H28v-31.7H9.92V42.34z"/>
	<path class="st0" d="M27.16,10.64h-16.4c-0.35,0-0.63-0.28-0.63-0.63V7.03c0-0.35,0.28-0.63,0.63-0.63h16.4
		c0.35,0,0.63,0.28,0.63,0.63v2.99C27.79,10.36,27.51,10.64,27.16,10.64z M11.39,9.39h15.14V7.66H11.39V9.39z"/>
	<path class="st0" d="M15.01,17.58h-2.54c-0.35,0-0.63-0.28-0.63-0.63v-4.29c0-0.35,0.28-0.63,0.63-0.63h2.54
		c0.35,0,0.63,0.28,0.63,0.63v4.29C15.64,17.3,15.36,17.58,15.01,17.58z M13.1,16.32h1.28v-3.03H13.1V16.32z"/>
	<path class="st0" d="M20.23,17.58h-2.54c-0.35,0-0.63-0.28-0.63-0.63v-4.29c0-0.35,0.28-0.63,0.63-0.63h2.54
		c0.35,0,0.63,0.28,0.63,0.63v4.29C20.86,17.3,20.58,17.58,20.23,17.58z M18.32,16.32h1.28v-3.03h-1.28V16.32z"/>
	<path class="st0" d="M25.45,17.58h-2.54c-0.35,0-0.63-0.28-0.63-0.63v-4.29c0-0.35,0.28-0.63,0.63-0.63h2.54
		c0.35,0,0.63,0.28,0.63,0.63v4.29C26.08,17.3,25.8,17.58,25.45,17.58z M23.54,16.32h1.28v-3.03h-1.28V16.32z"/>
	<path class="st0" d="M15.01,24.09h-2.54c-0.35,0-0.63-0.28-0.63-0.63v-4.29c0-0.35,0.28-0.63,0.63-0.63h2.54
		c0.35,0,0.63,0.28,0.63,0.63v4.29C15.64,23.8,15.36,24.09,15.01,24.09z M13.1,22.83h1.28V19.8H13.1V22.83z"/>
	<path class="st0" d="M20.23,24.09h-2.54c-0.35,0-0.63-0.28-0.63-0.63v-4.29c0-0.35,0.28-0.63,0.63-0.63h2.54
		c0.35,0,0.63,0.28,0.63,0.63v4.29C20.86,23.8,20.58,24.09,20.23,24.09z M18.32,22.83h1.28V19.8h-1.28V22.83z"/>
	<path class="st0" d="M25.45,24.09h-2.54c-0.35,0-0.63-0.28-0.63-0.63v-4.29c0-0.35,0.28-0.63,0.63-0.63h2.54
		c0.35,0,0.63,0.28,0.63,0.63v4.29C26.08,23.8,25.8,24.09,25.45,24.09z M23.54,22.83h1.28V19.8h-1.28V22.83z"/>
	<path class="st0" d="M15.01,30.59h-2.54c-0.35,0-0.63-0.28-0.63-0.63v-4.29c0-0.35,0.28-0.63,0.63-0.63h2.54
		c0.35,0,0.63,0.28,0.63,0.63v4.29C15.64,30.31,15.36,30.59,15.01,30.59z M13.1,29.33h1.28V26.3H13.1V29.33z"/>
	<path class="st0" d="M20.23,30.59h-2.54c-0.35,0-0.63-0.28-0.63-0.63v-4.29c0-0.35,0.28-0.63,0.63-0.63h2.54
		c0.35,0,0.63,0.28,0.63,0.63v4.29C20.86,30.31,20.58,30.59,20.23,30.59z M18.32,29.33h1.28V26.3h-1.28V29.33z"/>
	<path class="st0" d="M25.45,30.59h-2.54c-0.35,0-0.63-0.28-0.63-0.63v-4.29c0-0.35,0.28-0.63,0.63-0.63h2.54
		c0.35,0,0.63,0.28,0.63,0.63v4.29C26.08,30.31,25.8,30.59,25.45,30.59z M23.54,29.33h1.28V26.3h-1.28V29.33z"/>
	<path class="st0" d="M15.01,37.1h-2.54c-0.35,0-0.63-0.28-0.63-0.63v-4.29c0-0.35,0.28-0.63,0.63-0.63h2.54
		c0.35,0,0.63,0.28,0.63,0.63v4.29C15.64,36.81,15.36,37.1,15.01,37.1z M13.1,35.84h1.28v-3.03H13.1V35.84z"/>
	<path class="st0" d="M20.23,37.1h-2.54c-0.35,0-0.63-0.28-0.63-0.63v-4.29c0-0.35,0.28-0.63,0.63-0.63h2.54
		c0.35,0,0.63,0.28,0.63,0.63v4.29C20.86,36.81,20.58,37.1,20.23,37.1z M18.32,35.84h1.28v-3.03h-1.28V35.84z"/>
	<path class="st0" d="M25.45,37.1h-2.54c-0.35,0-0.63-0.28-0.63-0.63v-4.29c0-0.35,0.28-0.63,0.63-0.63h2.54
		c0.35,0,0.63,0.28,0.63,0.63v4.29C26.08,36.81,25.8,37.1,25.45,37.1z M23.54,35.84h1.28v-3.03h-1.28V35.84z"/>
	<path class="st0" d="M15.01,43.6h-2.54c-0.35,0-0.63-0.28-0.63-0.63v-4.29c0-0.35,0.28-0.63,0.63-0.63h2.54
		c0.35,0,0.63,0.28,0.63,0.63v4.29C15.64,43.32,15.36,43.6,15.01,43.6z M13.1,42.34h1.28v-3.03H13.1V42.34z"/>
	<path class="st0" d="M20.23,43.6h-2.54c-0.35,0-0.63-0.28-0.63-0.63v-4.29c0-0.35,0.28-0.63,0.63-0.63h2.54
		c0.35,0,0.63,0.28,0.63,0.63v4.29C20.86,43.32,20.58,43.6,20.23,43.6z M18.32,42.34h1.28v-3.03h-1.28V42.34z"/>
	<path class="st0" d="M25.45,43.6h-2.54c-0.35,0-0.63-0.28-0.63-0.63v-4.29c0-0.35,0.28-0.63,0.63-0.63h2.54
		c0.35,0,0.63,0.28,0.63,0.63v4.29C26.08,43.32,25.8,43.6,25.45,43.6z M23.54,42.34h1.28v-3.03h-1.28V42.34z"/>
	<path class="st0" d="M33.45,21.11h-2.2c-0.35,0-0.63-0.28-0.63-0.63v-3.71c0-0.35,0.28-0.63,0.63-0.63h2.2
		c0.35,0,0.63,0.28,0.63,0.63v3.71C34.08,20.83,33.8,21.11,33.45,21.11z M31.88,19.86h0.94v-2.45h-0.94V19.86z"/>
	<path class="st0" d="M37.96,21.11h-2.2c-0.35,0-0.63-0.28-0.63-0.63v-3.71c0-0.35,0.28-0.63,0.63-0.63h2.2
		c0.35,0,0.63,0.28,0.63,0.63v3.71C38.59,20.83,38.31,21.11,37.96,21.11z M36.4,19.86h0.94v-2.45H36.4V19.86z"/>
	<path class="st0" d="M33.45,26.74h-2.2c-0.35,0-0.63-0.28-0.63-0.63V22.4c0-0.35,0.28-0.63,0.63-0.63h2.2
		c0.35,0,0.63,0.28,0.63,0.63v3.71C34.08,26.45,33.8,26.74,33.45,26.74z M31.88,25.48h0.94v-2.45h-0.94V25.48z"/>
	<path class="st0" d="M37.96,26.74h-2.2c-0.35,0-0.63-0.28-0.63-0.63V22.4c0-0.35,0.28-0.63,0.63-0.63h2.2
		c0.35,0,0.63,0.28,0.63,0.63v3.71C38.59,26.45,38.31,26.74,37.96,26.74z M36.4,25.48h0.94v-2.45H36.4V25.48z"/>
	<path class="st0" d="M33.45,32.36h-2.2c-0.35,0-0.63-0.28-0.63-0.63v-3.71c0-0.35,0.28-0.63,0.63-0.63h2.2
		c0.35,0,0.63,0.28,0.63,0.63v3.71C34.08,32.08,33.8,32.36,33.45,32.36z M31.88,31.1h0.94v-2.45h-0.94V31.1z"/>
	<path class="st0" d="M37.96,32.36h-2.2c-0.35,0-0.63-0.28-0.63-0.63v-3.71c0-0.35,0.28-0.63,0.63-0.63h2.2
		c0.35,0,0.63,0.28,0.63,0.63v3.71C38.59,32.08,38.31,32.36,37.96,32.36z M36.4,31.1h0.94v-2.45H36.4V31.1z"/>
	<path class="st0" d="M33.45,37.98h-2.2c-0.35,0-0.63-0.28-0.63-0.63v-3.71c0-0.35,0.28-0.63,0.63-0.63h2.2
		c0.35,0,0.63,0.28,0.63,0.63v3.71C34.08,37.7,33.8,37.98,33.45,37.98z M31.88,36.72h0.94v-2.45h-0.94V36.72z"/>
	<path class="st0" d="M37.96,37.98h-2.2c-0.35,0-0.63-0.28-0.63-0.63v-3.71c0-0.35,0.28-0.63,0.63-0.63h2.2
		c0.35,0,0.63,0.28,0.63,0.63v3.71C38.59,37.7,38.31,37.98,37.96,37.98z M36.4,36.72h0.94v-2.45H36.4V36.72z"/>
	<path class="st0" d="M33.45,43.6h-2.2c-0.35,0-0.63-0.28-0.63-0.63v-3.71c0-0.35,0.28-0.63,0.63-0.63h2.2
		c0.35,0,0.63,0.28,0.63,0.63v3.71C34.08,43.32,33.8,43.6,33.45,43.6z M31.88,42.34h0.94v-2.45h-0.94V42.34z"/>
	<path class="st0" d="M37.96,43.6h-2.2c-0.35,0-0.63-0.28-0.63-0.63v-3.71c0-0.35,0.28-0.63,0.63-0.63h2.2
		c0.35,0,0.63,0.28,0.63,0.63v3.71C38.59,43.32,38.31,43.6,37.96,43.6z M36.4,42.34h0.94v-2.45H36.4V42.34z"/>
	<path class="st0" d="M39.44,15.12h-10.8c-0.35,0-0.63-0.28-0.63-0.63v-2.58c0-0.35,0.28-0.63,0.63-0.63h10.8
		c0.35,0,0.63,0.28,0.63,0.63v2.58C40.07,14.84,39.79,15.12,39.44,15.12z M29.26,13.86h9.55v-1.33h-9.55V13.86z"/>
	<path class="st0" d="M40.71,43.6H28.63c-0.35,0-0.63-0.28-0.63-0.63V14.49c0-0.35,0.28-0.63,0.63-0.63h12.08
		c0.35,0,0.63,0.28,0.63,0.63v28.48C41.34,43.32,41.06,43.6,40.71,43.6z M29.26,42.34h10.82V15.12H29.26V42.34z"/>
	<path class="st0" d="M42.26,43.6H7.74c-0.35,0-0.63-0.28-0.63-0.63s0.28-0.63,0.63-0.63h34.52c0.35,0,0.63,0.28,0.63,0.63
		S42.61,43.6,42.26,43.6z"/>
</g>
</svg>
