<?xml version="1.0" encoding="utf-8"?>
<!-- Generator: Adobe Illustrator 26.0.3, SVG Export Plug-In . SVG Version: 6.00 Build 0)  -->
<svg version="1.1" id="Layer_1" xmlns="http://www.w3.org/2000/svg" xmlns:xlink="http://www.w3.org/1999/xlink" x="0px" y="0px"
	 viewBox="0 0 50 50" style="enable-background:new 0 0 50 50;" xml:space="preserve">
<style type="text/css">
	.st0{fill:#506A66;}
	.st1{fill:#DBE1E0;}
	.st2{fill-rule:evenodd;clip-rule:evenodd;fill:#506A66;}
</style>
<g>
	<path class="st0" d="M42.3,38.71H30.43c-0.35,0-0.63-0.28-0.63-0.63V11.92c0-0.24,0.14-0.46,0.35-0.57
		c0.21-0.11,0.47-0.08,0.66,0.07l11.87,9.18c0.15,0.12,0.24,0.3,0.24,0.5v16.99C42.93,38.43,42.65,38.71,42.3,38.71z M31.06,37.46
		h10.62V21.41L31.06,13.2V37.46z"/>
	<path class="st0" d="M38.37,38.71h-4c-0.35,0-0.63-0.28-0.63-0.63v-8.82c0-0.22,0.12-0.43,0.31-0.54c0.19-0.11,0.43-0.12,0.62-0.01
		l4,2.14c0.2,0.11,0.33,0.32,0.33,0.55v6.68C39,38.43,38.72,38.71,38.37,38.71z M34.99,37.46h2.74v-5.67l-2.74-1.47V37.46z"/>
	<path class="st0" d="M7.69,29.7c-0.3,0-0.57-0.22-0.62-0.53c-0.05-0.34,0.18-0.66,0.53-0.72l22.74-3.51
		c0.35-0.05,0.66,0.18,0.72,0.53c0.05,0.34-0.18,0.66-0.53,0.72L7.78,29.69C7.75,29.7,7.72,29.7,7.69,29.7z"/>
	<path class="st0" d="M43.72,38.71H6.28c-0.35,0-0.63-0.28-0.63-0.63s0.28-0.63,0.63-0.63h37.43c0.35,0,0.63,0.28,0.63,0.63
		S44.06,38.71,43.72,38.71z"/>
	<path class="st0" d="M30.43,38.71H7.69c-0.35,0-0.63-0.28-0.63-0.63V18.14c0-0.28,0.19-0.53,0.46-0.61l22.74-6.23
		c0.19-0.05,0.39-0.01,0.55,0.11c0.16,0.12,0.25,0.3,0.25,0.5v26.17C31.06,38.43,30.78,38.71,30.43,38.71z M8.32,37.46H29.8V12.74
		L8.32,18.62V37.46z"/>
	<path class="st0" d="M7.69,34.95c-0.16,0-0.31-0.06-0.43-0.17c-0.13-0.12-0.2-0.28-0.2-0.46V22.91c0-0.29,0.2-0.54,0.48-0.61
		l22.74-5.69c0.19-0.05,0.39,0,0.54,0.11c0.15,0.12,0.24,0.3,0.24,0.5v15.55c0,0.33-0.26,0.6-0.59,0.63L7.73,34.95
		C7.72,34.95,7.7,34.95,7.69,34.95z M8.32,23.4v10.24l21.49-1.46V18.03L8.32,23.4z"/>
</g>
</svg>
