<?xml version="1.0" encoding="utf-8"?>
<!-- Generator: Adobe Illustrator 26.0.3, SVG Export Plug-In . SVG Version: 6.00 Build 0)  -->
<svg version="1.1" id="Layer_1" xmlns="http://www.w3.org/2000/svg" xmlns:xlink="http://www.w3.org/1999/xlink" x="0px" y="0px"
	 viewBox="0 0 50 50" style="enable-background:new 0 0 50 50;" xml:space="preserve">
<style type="text/css">
	.st0{fill:#506A66;}
	.st1{fill:#DBE1E0;}
	.st2{fill-rule:evenodd;clip-rule:evenodd;fill:#506A66;}
</style>
<g>
	<path class="st0" d="M32.19,44.26H17.81c-0.35,0-0.63-0.28-0.63-0.63V11.11c0-0.35,0.28-0.63,0.63-0.63h14.37
		c0.35,0,0.63,0.28,0.63,0.63v32.51C32.82,43.97,32.53,44.26,32.19,44.26z M18.44,43h13.12V11.74H18.44V43z"/>
	<path class="st0" d="M30.75,11.74H19.25c-0.35,0-0.63-0.28-0.63-0.63V8.74c0-0.35,0.28-0.63,0.63-0.63h11.51
		c0.35,0,0.63,0.28,0.63,0.63v2.37C31.38,11.46,31.1,11.74,30.75,11.74z M19.88,10.48h10.25V9.37H19.88V10.48z"/>
	<path class="st0" d="M28.66,9.37h-7.33c-0.25,0-0.47-0.14-0.57-0.37c-0.1-0.22-0.07-0.49,0.09-0.67l2.03-2.37
		c0.12-0.14,0.29-0.22,0.48-0.22h3.28c0.18,0,0.36,0.08,0.48,0.22l2.03,2.37c0.16,0.19,0.2,0.45,0.09,0.67
		C29.13,9.22,28.91,9.37,28.66,9.37z M22.7,8.11h4.6L26.35,7h-2.7L22.7,8.11z"/>
	<path class="st0" d="M29.49,17.61h-8.97c-0.35,0-0.63-0.28-0.63-0.63v-2.72c0-0.35,0.28-0.63,0.63-0.63h8.97
		c0.35,0,0.63,0.28,0.63,0.63v2.72C30.12,17.33,29.83,17.61,29.49,17.61z M21.14,16.35h7.71v-1.46h-7.71V16.35z"/>
	<path class="st0" d="M29.49,23.5h-8.97c-0.35,0-0.63-0.28-0.63-0.63v-2.72c0-0.35,0.28-0.63,0.63-0.63h8.97
		c0.35,0,0.63,0.28,0.63,0.63v2.72C30.12,23.22,29.83,23.5,29.49,23.5z M21.14,22.24h7.71v-1.46h-7.71V22.24z"/>
	<path class="st0" d="M29.49,29.39h-8.97c-0.35,0-0.63-0.28-0.63-0.63v-2.72c0-0.35,0.28-0.63,0.63-0.63h8.97
		c0.35,0,0.63,0.28,0.63,0.63v2.72C30.12,29.11,29.83,29.39,29.49,29.39z M21.14,28.14h7.71v-1.46h-7.71V28.14z"/>
	<path class="st0" d="M29.49,35.29h-8.97c-0.35,0-0.63-0.28-0.63-0.63v-2.72c0-0.35,0.28-0.63,0.63-0.63h8.97
		c0.35,0,0.63,0.28,0.63,0.63v2.72C30.12,35,29.83,35.29,29.49,35.29z M21.14,34.03h7.71v-1.46h-7.71V34.03z"/>
	<path class="st0" d="M29.49,41.18h-8.97c-0.35,0-0.63-0.28-0.63-0.63v-2.72c0-0.35,0.28-0.63,0.63-0.63h8.97
		c0.35,0,0.63,0.28,0.63,0.63v2.72C30.12,40.9,29.83,41.18,29.49,41.18z M21.14,39.92h7.71v-1.46h-7.71V39.92z"/>
	<path class="st0" d="M34.91,44.26h-2.72c-0.35,0-0.63-0.28-0.63-0.63V14.26c0-0.22,0.11-0.42,0.3-0.53
		c0.19-0.11,0.42-0.12,0.61-0.03l2.72,1.35c0.21,0.11,0.35,0.32,0.35,0.56v28.02C35.53,43.97,35.25,44.26,34.91,44.26z M32.82,43
		h1.46V16l-1.46-0.73V43z"/>
	<path class="st0" d="M17.81,44.26h-2.72c-0.35,0-0.63-0.28-0.63-0.63V15.61c0-0.24,0.14-0.46,0.35-0.56l2.72-1.35
		c0.19-0.1,0.42-0.09,0.61,0.03c0.19,0.11,0.3,0.32,0.3,0.53v29.37C18.44,43.97,18.16,44.26,17.81,44.26z M15.72,43h1.46V15.27
		L15.72,16V43z"/>
	<path class="st0" d="M36.47,44.26H13.53c-0.35,0-0.63-0.28-0.63-0.63S13.18,43,13.53,43h22.94c0.35,0,0.63,0.28,0.63,0.63
		S36.82,44.26,36.47,44.26z"/>
</g>
</svg>
