<?xml version="1.0" encoding="utf-8"?>
<!-- Generator: Adobe Illustrator 26.0.3, SVG Export Plug-In . SVG Version: 6.00 Build 0)  -->
<svg version="1.1" id="Layer_1" xmlns="http://www.w3.org/2000/svg" xmlns:xlink="http://www.w3.org/1999/xlink" x="0px" y="0px"
	 viewBox="0 0 50 50" style="enable-background:new 0 0 50 50;" xml:space="preserve">
<style type="text/css">
	.st0{fill:#506A66;}
	.st1{fill:#DBE1E0;}
	.st2{fill-rule:evenodd;clip-rule:evenodd;fill:#506A66;}
</style>
<g>
	<path class="st0" d="M29.03,24.71h-8.05c-0.31,0-0.56-0.25-0.56-0.56c0-0.31,0.25-0.56,0.56-0.56h8.05c0.31,0,0.56,0.25,0.56,0.56
		C29.59,24.46,29.34,24.71,29.03,24.71z"/>
	<path class="st0" d="M36.25,42.76H13.75c-0.31,0-0.56-0.25-0.56-0.56V29.9c0-0.74,0.61-1.35,1.35-1.35h20.93
		c0.74,0,1.35,0.61,1.35,1.35V42.2C36.81,42.51,36.56,42.76,36.25,42.76z M14.3,41.65H35.7V29.9c0-0.13-0.1-0.23-0.23-0.23H14.54
		c-0.13,0-0.23,0.1-0.23,0.23V41.65z"/>
	<path class="st0" d="M42.28,42.76h-6.02c-0.31,0-0.56-0.25-0.56-0.56V29.9c0-0.13-0.1-0.23-0.23-0.23h-6.44
		c-0.31,0-0.56-0.25-0.56-0.56V10.87c0-0.31,0.25-0.56,0.56-0.56h13.25c0.31,0,0.56,0.25,0.56,0.56V42.2
		C42.83,42.51,42.58,42.76,42.28,42.76z M36.81,41.65h4.91V11.43H29.59v17.12h5.88c0.74,0,1.35,0.61,1.35,1.35V41.65z"/>
	<path class="st0" d="M13.75,42.76H7.72c-0.31,0-0.56-0.25-0.56-0.56V10.87c0-0.31,0.25-0.56,0.56-0.56h13.25
		c0.31,0,0.56,0.25,0.56,0.56V29.1c0,0.31-0.25,0.56-0.56,0.56h-6.44c-0.13,0-0.23,0.1-0.23,0.23V42.2
		C14.3,42.51,14.05,42.76,13.75,42.76z M8.28,41.65h4.91V29.9c0-0.74,0.61-1.35,1.35-1.35h5.88V11.43H8.28V41.65z"/>
	<path class="st0" d="M21.84,11.43H6.86c-0.31,0-0.56-0.25-0.56-0.56V7.8c0-0.31,0.25-0.56,0.56-0.56h14.98
		c0.31,0,0.56,0.25,0.56,0.56v3.07C22.39,11.18,22.14,11.43,21.84,11.43z M7.42,10.31h13.86V8.36H7.42V10.31z"/>
	<path class="st0" d="M43.14,11.43H28.16c-0.31,0-0.56-0.25-0.56-0.56V7.8c0-0.31,0.25-0.56,0.56-0.56h14.98
		c0.31,0,0.56,0.25,0.56,0.56v3.07C43.7,11.18,43.45,11.43,43.14,11.43z M28.72,10.31h13.86V8.36H28.72V10.31z"/>
	<path class="st0" d="M18.13,14.5h-7.56c-0.31,0-0.56-0.25-0.56-0.56c0-0.31,0.25-0.56,0.56-0.56h7.56c0.31,0,0.56,0.25,0.56,0.56
		C18.69,14.25,18.44,14.5,18.13,14.5z"/>
	<path class="st0" d="M18.13,18.52h-7.56c-0.31,0-0.56-0.25-0.56-0.56s0.25-0.56,0.56-0.56h7.56c0.31,0,0.56,0.25,0.56,0.56
		S18.44,18.52,18.13,18.52z"/>
	<path class="st0" d="M18.13,22.54h-7.56c-0.31,0-0.56-0.25-0.56-0.56s0.25-0.56,0.56-0.56h7.56c0.31,0,0.56,0.25,0.56,0.56
		S18.44,22.54,18.13,22.54z"/>
	<path class="st0" d="M18.13,26.55h-7.56c-0.31,0-0.56-0.25-0.56-0.56c0-0.31,0.25-0.56,0.56-0.56h7.56c0.31,0,0.56,0.25,0.56,0.56
		C18.69,26.3,18.44,26.55,18.13,26.55z"/>
	<path class="st0" d="M13.75,30.57h-3.18c-0.31,0-0.56-0.25-0.56-0.56s0.25-0.56,0.56-0.56h3.18c0.31,0,0.56,0.25,0.56,0.56
		S14.05,30.57,13.75,30.57z"/>
	<path class="st0" d="M13.75,34.59h-3.18c-0.31,0-0.56-0.25-0.56-0.56c0-0.31,0.25-0.56,0.56-0.56h3.18c0.31,0,0.56,0.25,0.56,0.56
		C14.3,34.34,14.05,34.59,13.75,34.59z"/>
	<path class="st0" d="M13.75,38.6h-3.18c-0.31,0-0.56-0.25-0.56-0.56c0-0.31,0.25-0.56,0.56-0.56h3.18c0.31,0,0.56,0.25,0.56,0.56
		C14.3,38.35,14.05,38.6,13.75,38.6z"/>
	<path class="st0" d="M39.43,14.5h-7.56c-0.31,0-0.56-0.25-0.56-0.56c0-0.31,0.25-0.56,0.56-0.56h7.56c0.31,0,0.56,0.25,0.56,0.56
		C39.99,14.25,39.74,14.5,39.43,14.5z"/>
	<path class="st0" d="M39.43,18.52h-7.56c-0.31,0-0.56-0.25-0.56-0.56s0.25-0.56,0.56-0.56h7.56c0.31,0,0.56,0.25,0.56,0.56
		S39.74,18.52,39.43,18.52z"/>
	<path class="st0" d="M39.43,22.54h-7.56c-0.31,0-0.56-0.25-0.56-0.56s0.25-0.56,0.56-0.56h7.56c0.31,0,0.56,0.25,0.56,0.56
		S39.74,22.54,39.43,22.54z"/>
	<path class="st0" d="M39.43,26.55h-7.56c-0.31,0-0.56-0.25-0.56-0.56c0-0.31,0.25-0.56,0.56-0.56h7.56c0.31,0,0.56,0.25,0.56,0.56
		C39.99,26.3,39.74,26.55,39.43,26.55z"/>
	<path class="st0" d="M39.43,30.57h-3.18c-0.31,0-0.56-0.25-0.56-0.56s0.25-0.56,0.56-0.56h3.18c0.31,0,0.56,0.25,0.56,0.56
		S39.74,30.57,39.43,30.57z"/>
	<path class="st0" d="M39.43,34.59h-3.18c-0.31,0-0.56-0.25-0.56-0.56c0-0.31,0.25-0.56,0.56-0.56h3.18c0.31,0,0.56,0.25,0.56,0.56
		C39.99,34.34,39.74,34.59,39.43,34.59z"/>
	<path class="st0" d="M39.43,38.6h-3.18c-0.31,0-0.56-0.25-0.56-0.56c0-0.31,0.25-0.56,0.56-0.56h3.18c0.31,0,0.56,0.25,0.56,0.56
		C39.99,38.35,39.74,38.6,39.43,38.6z"/>
	<path class="st0" d="M36.25,32.44H13.75c-0.31,0-0.56-0.25-0.56-0.56c0-0.31,0.25-0.56,0.56-0.56h22.51c0.31,0,0.56,0.25,0.56,0.56
		C36.81,32.19,36.56,32.44,36.25,32.44z"/>
	<path class="st0" d="M29.86,42.76h-9.72c-0.31,0-0.56-0.25-0.56-0.56V31.89c0-0.31,0.25-0.56,0.56-0.56h9.72
		c0.31,0,0.56,0.25,0.56,0.56V42.2C30.42,42.51,30.17,42.76,29.86,42.76z M20.7,41.65h8.6v-9.2h-8.6V41.65z"/>
</g>
</svg>
