<?xml version="1.0" encoding="utf-8"?>
<!-- Generator: Adobe Illustrator 26.0.3, SVG Export Plug-In . SVG Version: 6.00 Build 0)  -->
<svg version="1.1" id="Layer_1" xmlns="http://www.w3.org/2000/svg" xmlns:xlink="http://www.w3.org/1999/xlink" x="0px" y="0px"
	 viewBox="0 0 50 50" style="enable-background:new 0 0 50 50;" xml:space="preserve">
<style type="text/css">
	.st0{fill:#506A66;}
	.st1{fill:#DBE1E0;}
	.st2{fill-rule:evenodd;clip-rule:evenodd;fill:#506A66;}
</style>
<g>
	<path class="st0" d="M17.7,35.17h-4.83c-0.34,0-0.61-0.27-0.61-0.61V19.59c0-0.34,0.28-0.61,0.61-0.61h4.83
		c0.34,0,0.61,0.28,0.61,0.61v14.97C18.31,34.9,18.04,35.17,17.7,35.17z M13.48,33.94h3.6V20.21h-3.6V33.94z"/>
	<path class="st0" d="M18.42,20.21h-6.27c-0.21,0-0.41-0.11-0.53-0.3l-1.68-2.78c-0.11-0.19-0.12-0.43-0.01-0.62
		c0.11-0.19,0.31-0.31,0.53-0.31h9.63c0.22,0,0.43,0.12,0.53,0.31c0.11,0.19,0.1,0.43-0.01,0.62l-1.68,2.78
		C18.83,20.09,18.63,20.21,18.42,20.21z M12.5,18.98h5.58l0.94-1.55h-7.45L12.5,18.98z"/>
	<path class="st0" d="M20.1,37.96h-9.63c-0.22,0-0.43-0.12-0.53-0.31c-0.11-0.19-0.11-0.43,0.01-0.62l1.68-2.78
		c0.11-0.18,0.31-0.3,0.53-0.3h6.27c0.22,0,0.41,0.11,0.53,0.3l1.68,2.78c0.11,0.19,0.12,0.43,0.01,0.62
		C20.53,37.84,20.32,37.96,20.1,37.96z M11.56,36.73h7.45l-0.94-1.55H12.5L11.56,36.73z"/>
	<path class="st0" d="M37.13,35.17H32.3c-0.34,0-0.61-0.27-0.61-0.61V19.59c0-0.34,0.28-0.61,0.61-0.61h4.83
		c0.34,0,0.61,0.28,0.61,0.61v14.97C37.74,34.9,37.47,35.17,37.13,35.17z M32.92,33.94h3.6V20.21h-3.6V33.94z"/>
	<path class="st0" d="M41.84,37.96H8.16c-0.34,0-0.61-0.28-0.61-0.61V16.81c0-0.34,0.28-0.61,0.61-0.61h33.67
		c0.34,0,0.61,0.28,0.61,0.61v20.53C42.45,37.68,42.18,37.96,41.84,37.96z M8.78,36.73h32.45v-19.3H8.78V36.73z"/>
	<path class="st0" d="M43.36,17.42H6.64c-0.3,0-0.55-0.21-0.6-0.51c-0.05-0.29,0.11-0.58,0.39-0.68l18.36-6.73
		c0.14-0.05,0.29-0.05,0.42,0l18.36,6.73c0.28,0.1,0.45,0.39,0.39,0.68C43.91,17.21,43.66,17.42,43.36,17.42z M10.1,16.2h29.8
		L25,10.74L10.1,16.2z"/>
	<path class="st0" d="M43.16,40.53H6.84c-0.34,0-0.61-0.28-0.61-0.61v-2.58c0-0.34,0.27-0.61,0.61-0.61h36.33
		c0.34,0,0.61,0.28,0.61,0.61v2.58C43.78,40.26,43.5,40.53,43.16,40.53z M7.45,39.3h35.1v-1.35H7.45V39.3z"/>
	<path class="st0" d="M29.9,37.96h-9.8c-0.34,0-0.62-0.28-0.62-0.61v-9.3c0-3.04,2.47-5.51,5.51-5.51s5.51,2.47,5.51,5.51v9.3
		C30.51,37.68,30.24,37.96,29.9,37.96z M20.71,36.73h8.57v-8.69c0-2.36-1.92-4.29-4.29-4.29c-2.36,0-4.29,1.92-4.29,4.29V36.73z"/>
	<path class="st0" d="M37.85,20.21h-6.27c-0.21,0-0.41-0.11-0.53-0.3l-1.68-2.78c-0.11-0.19-0.12-0.43-0.01-0.62
		c0.11-0.19,0.31-0.31,0.53-0.31h9.63c0.22,0,0.43,0.12,0.53,0.31c0.11,0.19,0.11,0.43-0.01,0.62l-1.68,2.78
		C38.26,20.09,38.06,20.21,37.85,20.21z M31.93,18.98h5.58l0.94-1.55h-7.45L31.93,18.98z"/>
	<path class="st0" d="M39.53,37.96H29.9c-0.22,0-0.43-0.12-0.53-0.31c-0.11-0.19-0.11-0.43,0.01-0.62l1.68-2.78
		c0.11-0.18,0.31-0.3,0.53-0.3h6.27c0.22,0,0.41,0.11,0.53,0.3l1.68,2.78c0.12,0.19,0.12,0.43,0.01,0.62
		C39.96,37.84,39.75,37.96,39.53,37.96z M30.99,36.73h7.45l-0.94-1.55h-5.58L30.99,36.73z"/>
</g>
</svg>
