<?xml version="1.0" encoding="utf-8"?>
<!-- Generator: Adobe Illustrator 26.0.3, SVG Export Plug-In . SVG Version: 6.00 Build 0)  -->
<svg version="1.1" id="Layer_1" xmlns="http://www.w3.org/2000/svg" xmlns:xlink="http://www.w3.org/1999/xlink" x="0px" y="0px"
	 viewBox="0 0 50 50" style="enable-background:new 0 0 50 50;" xml:space="preserve">
<style type="text/css">
	.st0{fill:#506A66;}
	.st1{fill:#DBE1E0;}
	.st2{fill-rule:evenodd;clip-rule:evenodd;fill:#506A66;}
</style>
<g>
	<path class="st0" d="M33.36,44.26H16.64c-0.36,0-0.65-0.29-0.65-0.65V29.37c0-0.36,0.29-0.65,0.65-0.65h16.72
		c0.36,0,0.65,0.29,0.65,0.65v14.24C34.01,43.97,33.72,44.26,33.36,44.26z M17.28,42.96h15.43V30.02H17.28V42.96z"/>
	<path class="st0" d="M27.71,44.26h-5.41c-0.36,0-0.65-0.29-0.65-0.65v-3.93c0-0.36,0.29-0.65,0.65-0.65h5.41
		c0.36,0,0.65,0.29,0.65,0.65v3.93C28.35,43.97,28.06,44.26,27.71,44.26z M22.94,42.96h4.12v-2.64h-4.12V42.96z"/>
	<path class="st0" d="M30.79,30.02H19.21c-0.19,0-0.36-0.08-0.49-0.22c-0.12-0.14-0.18-0.33-0.15-0.51l2.3-17.5
		c0.04-0.32,0.32-0.56,0.64-0.56h6.98c0.32,0,0.6,0.24,0.64,0.56l2.3,17.5c0.02,0.18-0.03,0.37-0.15,0.51
		C31.15,29.94,30.97,30.02,30.79,30.02z M19.95,28.73h10.11l-2.13-16.2h-5.84L19.95,28.73z"/>
	<path class="st0" d="M25,12.52c-0.36,0-0.65-0.29-0.65-0.65V6.39c0-0.36,0.29-0.65,0.65-0.65s0.65,0.29,0.65,0.65v5.49
		C25.65,12.24,25.36,12.52,25,12.52z"/>
	<path class="st0" d="M30.18,25.39H19.82c-0.19,0-0.36-0.08-0.49-0.22c-0.12-0.14-0.18-0.33-0.15-0.51l1.08-8.23
		c0.04-0.32,0.32-0.56,0.64-0.56h8.19c0.32,0,0.6,0.24,0.64,0.56l1.08,8.23c0.02,0.18-0.03,0.37-0.15,0.51
		C30.54,25.31,30.37,25.39,30.18,25.39z M20.56,24.1h8.89l-0.91-6.94h-7.06L20.56,24.1z"/>
	<path class="st0" d="M33.1,33.75H16.9c-0.36,0-0.65-0.29-0.65-0.65c0-0.36,0.29-0.65,0.65-0.65H33.1c0.36,0,0.65,0.29,0.65,0.65
		C33.75,33.46,33.46,33.75,33.1,33.75z"/>
	<path class="st0" d="M33.1,37.04H16.9c-0.36,0-0.65-0.29-0.65-0.65c0-0.36,0.29-0.65,0.65-0.65H33.1c0.36,0,0.65,0.29,0.65,0.65
		C33.75,36.75,33.46,37.04,33.1,37.04z"/>
	<path class="st0" d="M35.04,44.26H14.96c-0.36,0-0.65-0.29-0.65-0.65c0-0.36,0.29-0.65,0.65-0.65h20.09c0.36,0,0.65,0.29,0.65,0.65
		C35.69,43.97,35.4,44.26,35.04,44.26z"/>
	<path class="st0" d="M29.56,21.27h-9.01c-0.36,0-0.65-0.29-0.65-0.65s0.29-0.65,0.65-0.65h9.01c0.36,0,0.65,0.29,0.65,0.65
		S29.91,21.27,29.56,21.27z"/>
</g>
</svg>
