<?xml version="1.0" encoding="utf-8"?>
<!-- Generator: Adobe Illustrator 26.0.3, SVG Export Plug-In . SVG Version: 6.00 Build 0)  -->
<svg version="1.1" id="Layer_1" xmlns="http://www.w3.org/2000/svg" xmlns:xlink="http://www.w3.org/1999/xlink" x="0px" y="0px"
	 viewBox="0 0 50 50" style="enable-background:new 0 0 50 50;" xml:space="preserve">
<style type="text/css">
	.st0{fill:#506A66;}
	.st1{fill:#DBE1E0;}
	.st2{fill-rule:evenodd;clip-rule:evenodd;fill:#506A66;}
</style>
<g>
	<path class="st0" d="M22.79,20.82c-0.12,0-0.23-0.03-0.34-0.1l-4.79-3.06L6.83,20.77c-0.33,0.09-0.68-0.1-0.78-0.43
		c-0.1-0.33,0.1-0.68,0.43-0.78l11.11-3.19c0.17-0.05,0.36-0.02,0.51,0.07l5.03,3.21c0.29,0.19,0.38,0.58,0.19,0.87
		C23.2,20.72,23,20.82,22.79,20.82z"/>
	<path class="st0" d="M22.79,24.45c-0.12,0-0.23-0.03-0.34-0.1l-4.79-3.06L6.83,24.4c-0.33,0.1-0.68-0.1-0.78-0.43
		s0.1-0.68,0.43-0.78L17.59,20c0.17-0.05,0.36-0.02,0.51,0.07l5.03,3.21c0.29,0.19,0.38,0.58,0.19,0.87
		C23.2,24.34,23,24.45,22.79,24.45z"/>
	<path class="st0" d="M22.79,28.07c-0.12,0-0.23-0.03-0.34-0.1l-4.79-3.06L6.83,28.02c-0.33,0.1-0.68-0.1-0.78-0.43
		c-0.1-0.33,0.1-0.68,0.43-0.78l11.11-3.19c0.17-0.05,0.36-0.02,0.51,0.07l5.03,3.21c0.29,0.19,0.38,0.58,0.19,0.87
		C23.2,27.97,23,28.07,22.79,28.07z"/>
	<path class="st0" d="M22.79,31.69c-0.12,0-0.23-0.03-0.34-0.1l-4.79-3.06L6.83,31.64c-0.33,0.1-0.68-0.1-0.78-0.43
		c-0.1-0.33,0.1-0.68,0.43-0.78l11.11-3.19c0.17-0.05,0.36-0.02,0.51,0.07l5.03,3.21c0.29,0.19,0.38,0.58,0.19,0.87
		C23.2,31.59,23,31.69,22.79,31.69z"/>
	<path class="st0" d="M22.79,35.31c-0.12,0-0.23-0.03-0.34-0.1l-4.79-3.06L6.83,35.27c-0.33,0.1-0.68-0.1-0.78-0.43
		c-0.1-0.33,0.1-0.68,0.43-0.78l11.11-3.19c0.17-0.05,0.36-0.02,0.51,0.07l5.03,3.21c0.29,0.19,0.38,0.58,0.19,0.87
		C23.2,35.21,23,35.31,22.79,35.31z"/>
	<path class="st0" d="M22.79,38.94c-0.12,0-0.23-0.03-0.34-0.1l-4.79-3.06L6.83,38.89c-0.33,0.09-0.68-0.1-0.78-0.43
		c-0.1-0.33,0.1-0.68,0.43-0.78l11.11-3.19c0.17-0.05,0.36-0.02,0.51,0.07l5.03,3.21c0.29,0.19,0.38,0.58,0.19,0.87
		C23.2,38.84,23,38.94,22.79,38.94z"/>
	<path class="st0" d="M6.66,40.07c-0.35,0-0.63-0.28-0.63-0.63V20.17c0-0.35,0.28-0.63,0.63-0.63c0.35,0,0.63,0.28,0.63,0.63v19.27
		C7.28,39.79,7,40.07,6.66,40.07z"/>
	<path class="st0" d="M43.34,40.07c-0.35,0-0.63-0.28-0.63-0.63V15l-5.92-3.75l-13.82,3.98c-0.33,0.09-0.68-0.1-0.78-0.43
		c-0.1-0.33,0.1-0.68,0.43-0.78l14.1-4.06c0.17-0.05,0.36-0.02,0.51,0.07l6.45,4.09c0.18,0.11,0.29,0.32,0.29,0.53v24.79
		C43.97,39.79,43.69,40.07,43.34,40.07z"/>
	<path class="st0" d="M43.34,19.89c-0.12,0-0.23-0.03-0.34-0.1l-6.22-3.94l-13.82,3.98c-0.33,0.1-0.68-0.1-0.78-0.43
		c-0.1-0.33,0.1-0.68,0.43-0.78l14.1-4.06c0.17-0.05,0.36-0.02,0.51,0.07l6.45,4.09c0.29,0.19,0.38,0.57,0.19,0.87
		C43.76,19.79,43.55,19.89,43.34,19.89z"/>
	<path class="st0" d="M43.34,24.51c-0.12,0-0.23-0.03-0.34-0.1l-6.22-3.94l-13.82,3.98c-0.33,0.1-0.68-0.1-0.78-0.43
		c-0.1-0.33,0.1-0.68,0.43-0.78l14.1-4.06c0.17-0.05,0.36-0.02,0.51,0.07l6.45,4.09c0.29,0.19,0.38,0.57,0.19,0.87
		C43.76,24.41,43.55,24.51,43.34,24.51z"/>
	<path class="st0" d="M43.34,29.12c-0.12,0-0.23-0.03-0.34-0.1l-6.22-3.94l-13.82,3.98c-0.33,0.09-0.68-0.1-0.78-0.43
		c-0.1-0.33,0.1-0.68,0.43-0.78l14.1-4.06c0.17-0.05,0.36-0.02,0.51,0.07l6.45,4.09c0.29,0.19,0.38,0.57,0.19,0.87
		C43.76,29.02,43.55,29.12,43.34,29.12z"/>
	<path class="st0" d="M43.34,33.74c-0.12,0-0.23-0.03-0.34-0.1l-6.22-3.94l-13.82,3.98c-0.33,0.1-0.68-0.1-0.78-0.43
		c-0.1-0.33,0.1-0.68,0.43-0.78l14.1-4.06c0.17-0.05,0.36-0.02,0.51,0.07l6.45,4.09c0.29,0.19,0.38,0.57,0.19,0.87
		C43.76,33.63,43.55,33.74,43.34,33.74z"/>
	<path class="st0" d="M43.34,38.35c-0.12,0-0.23-0.03-0.34-0.1l-6.22-3.94l-13.82,3.98c-0.33,0.1-0.68-0.1-0.78-0.43
		c-0.1-0.33,0.1-0.68,0.43-0.78l14.1-4.06c0.17-0.05,0.36-0.02,0.51,0.07l6.45,4.09c0.29,0.19,0.38,0.57,0.19,0.87
		C43.76,38.25,43.55,38.35,43.34,38.35z"/>
	<path class="st0" d="M22.79,40.07c-0.35,0-0.63-0.28-0.63-0.63V14.62c0-0.35,0.28-0.63,0.63-0.63c0.35,0,0.63,0.28,0.63,0.63v24.82
		C23.42,39.79,23.14,40.07,22.79,40.07z"/>
</g>
</svg>
