<?xml version="1.0" encoding="utf-8"?>
<!-- Generator: Adobe Illustrator 26.0.3, SVG Export Plug-In . SVG Version: 6.00 Build 0)  -->
<svg version="1.1" id="Layer_1" xmlns="http://www.w3.org/2000/svg" xmlns:xlink="http://www.w3.org/1999/xlink" x="0px" y="0px"
	 viewBox="0 0 50 50" style="enable-background:new 0 0 50 50;" xml:space="preserve">
<style type="text/css">
	.st0{fill:#506A66;}
	.st1{fill:#DBE1E0;}
	.st2{fill-rule:evenodd;clip-rule:evenodd;fill:#506A66;}
</style>
<g>
	<path class="st0" d="M23.4,19.47h-4.79c-0.41,0-0.75-0.34-0.75-0.75v-3.12c0-1.73,1.41-3.15,3.15-3.15c1.74,0,3.15,1.41,3.15,3.15
		v3.12C24.15,19.13,23.82,19.47,23.4,19.47z M19.36,17.97h3.29v-2.37c0-0.91-0.74-1.65-1.65-1.65c-0.91,0-1.65,0.74-1.65,1.65V17.97
		z"/>
	<path class="st0" d="M31.39,19.47H26.6c-0.41,0-0.75-0.34-0.75-0.75v-3.12c0-1.73,1.41-3.15,3.15-3.15c1.74,0,3.15,1.41,3.15,3.15
		v3.12C32.14,19.13,31.8,19.47,31.39,19.47z M27.35,17.97h3.29v-2.37c0-0.91-0.74-1.65-1.65-1.65c-0.91,0-1.65,0.74-1.65,1.65V17.97
		z"/>
	<path class="st0" d="M23.4,28.1h-4.79c-0.41,0-0.75-0.34-0.75-0.75v-3.12c0-1.73,1.41-3.15,3.15-3.15c1.74,0,3.15,1.41,3.15,3.15
		v3.12C24.15,27.77,23.82,28.1,23.4,28.1z M19.36,26.6h3.29v-2.37c0-0.91-0.74-1.65-1.65-1.65c-0.91,0-1.65,0.74-1.65,1.65V26.6z"/>
	<path class="st0" d="M31.39,28.1H26.6c-0.41,0-0.75-0.34-0.75-0.75v-3.12c0-1.73,1.41-3.15,3.15-3.15c1.74,0,3.15,1.41,3.15,3.15
		v3.12C32.14,27.77,31.8,28.1,31.39,28.1z M27.35,26.6h3.29v-2.37c0-0.91-0.74-1.65-1.65-1.65c-0.91,0-1.65,0.74-1.65,1.65V26.6z"/>
	<path class="st0" d="M42.17,30.86h-4.79c-0.41,0-0.75-0.34-0.75-0.75v-3.12c0-1.74,1.41-3.15,3.15-3.15c1.74,0,3.15,1.41,3.15,3.15
		v3.12C42.92,30.53,42.59,30.86,42.17,30.86z M38.13,29.36h3.29v-2.37c0-0.91-0.74-1.65-1.65-1.65s-1.65,0.74-1.65,1.65V29.36z"/>
	<path class="st0" d="M42.17,39.49h-4.79c-0.41,0-0.75-0.34-0.75-0.75v-3.12c0-1.74,1.41-3.15,3.15-3.15c1.74,0,3.15,1.41,3.15,3.15
		v3.12C42.92,39.16,42.59,39.49,42.17,39.49z M38.13,37.99h3.29v-2.37c0-0.91-0.74-1.65-1.65-1.65s-1.65,0.74-1.65,1.65V37.99z"/>
	<path class="st0" d="M30.38,43.6H19.62c-0.41,0-0.75-0.34-0.75-0.75v-7.01c0-3.38,2.75-6.13,6.13-6.13s6.13,2.75,6.13,6.13v7.01
		C31.13,43.27,30.79,43.6,30.38,43.6z M20.37,42.1h9.26v-6.26c0-2.55-2.08-4.63-4.63-4.63s-4.63,2.08-4.63,4.63V42.1z"/>
	<path class="st0" d="M34.17,43.6H15.83c-0.41,0-0.75-0.34-0.75-0.75V10.2c0-0.41,0.34-0.75,0.75-0.75h18.35
		c0.41,0,0.75,0.34,0.75,0.75v32.66C34.92,43.27,34.59,43.6,34.17,43.6z M16.58,42.1h16.85V10.95H16.58V42.1z"/>
	<path class="st0" d="M45.05,43.6H34.17c-0.41,0-0.75-0.34-0.75-0.75V19.97c0-0.41,0.34-0.75,0.75-0.75h10.88
		c0.41,0,0.75,0.34,0.75,0.75v22.88C45.8,43.27,45.47,43.6,45.05,43.6z M34.92,42.1h9.38V20.72h-9.38V42.1z"/>
	<path class="st0" d="M35.14,10.95H14.86c-0.41,0-0.75-0.34-0.75-0.75V7.15c0-0.41,0.34-0.75,0.75-0.75h20.27
		c0.41,0,0.75,0.34,0.75,0.75v3.05C35.89,10.61,35.55,10.95,35.14,10.95z M15.61,9.45h18.77V7.9H15.61V9.45z"/>
	<path class="st0" d="M47.24,20.72h-2.18c-0.41,0-0.75-0.34-0.75-0.75c0-0.41,0.34-0.75,0.75-0.75h1.43v-1.23l-12.53-3.91
		c-0.4-0.12-0.62-0.54-0.49-0.94c0.12-0.4,0.54-0.62,0.94-0.49l13.06,4.08c0.31,0.1,0.53,0.39,0.53,0.72v2.53
		C47.99,20.38,47.65,20.72,47.24,20.72z"/>
	<path class="st0" d="M12.62,30.86H7.83c-0.41,0-0.75-0.34-0.75-0.75v-3.12c0-1.74,1.41-3.15,3.15-3.15c1.74,0,3.15,1.41,3.15,3.15
		v3.12C13.37,30.53,13.03,30.86,12.62,30.86z M8.58,29.36h3.29v-2.37c0-0.91-0.74-1.65-1.65-1.65c-0.91,0-1.65,0.74-1.65,1.65V29.36
		z"/>
	<path class="st0" d="M12.62,39.49H7.83c-0.41,0-0.75-0.34-0.75-0.75v-3.12c0-1.74,1.41-3.15,3.15-3.15c1.74,0,3.15,1.41,3.15,3.15
		v3.12C13.37,39.16,13.03,39.49,12.62,39.49z M8.58,37.99h3.29v-2.37c0-0.91-0.74-1.65-1.65-1.65c-0.91,0-1.65,0.74-1.65,1.65V37.99
		z"/>
	<path class="st0" d="M15.83,43.6H4.95c-0.41,0-0.75-0.34-0.75-0.75V19.97c0-0.41,0.34-0.75,0.75-0.75h10.88
		c0.41,0,0.75,0.34,0.75,0.75v22.88C16.58,43.27,16.24,43.6,15.83,43.6z M5.7,42.1h9.38V20.72H5.7V42.1z"/>
	<path class="st0" d="M4.95,20.72H2.76c-0.41,0-0.75-0.34-0.75-0.75v-2.53c0-0.33,0.21-0.62,0.53-0.72l13.06-4.08
		c0.4-0.12,0.82,0.1,0.94,0.49c0.12,0.4-0.1,0.82-0.49,0.94L3.51,17.99v1.23h1.43c0.41,0,0.75,0.34,0.75,0.75
		C5.7,20.38,5.36,20.72,4.95,20.72z"/>
	<path class="st0" d="M47.24,43.6H2.76c-0.41,0-0.75-0.34-0.75-0.75c0-0.41,0.34-0.75,0.75-0.75h44.47c0.41,0,0.75,0.34,0.75,0.75
		C47.99,43.27,47.65,43.6,47.24,43.6z"/>
</g>
</svg>
