<?xml version="1.0" encoding="utf-8"?>
<!-- Generator: Adobe Illustrator 26.0.3, SVG Export Plug-In . SVG Version: 6.00 Build 0)  -->
<svg version="1.1" id="Layer_1" xmlns="http://www.w3.org/2000/svg" xmlns:xlink="http://www.w3.org/1999/xlink" x="0px" y="0px"
	 viewBox="0 0 50 50" style="enable-background:new 0 0 50 50;" xml:space="preserve">
<style type="text/css">
	.st0{fill:#506A66;}
	.st1{fill:#DBE1E0;}
	.st2{fill-rule:evenodd;clip-rule:evenodd;fill:#506A66;}
</style>
<g>
	<path class="st0" d="M42.35,26.6H7.65c-0.32,0-0.58-0.26-0.58-0.58V10.19c0-0.32,0.26-0.58,0.58-0.58h34.71
		c0.32,0,0.58,0.26,0.58,0.58v15.83C42.93,26.34,42.67,26.6,42.35,26.6z M8.23,25.44h33.55V10.77H8.23V25.44z"/>
	<path class="st0" d="M40.15,40.39H9.85c-0.32,0-0.58-0.26-0.58-0.58V26.02c0-0.32,0.26-0.58,0.58-0.58h30.3
		c0.32,0,0.58,0.26,0.58,0.58v13.79C40.73,40.13,40.47,40.39,40.15,40.39z M10.43,39.23h29.14V26.6H10.43V39.23z"/>
	<path class="st0" d="M17.64,23.8h-7.36c-0.32,0-0.58-0.26-0.58-0.58V12.96c0-0.32,0.26-0.58,0.58-0.58h7.36
		c0.32,0,0.58,0.26,0.58,0.58v10.26C18.22,23.54,17.96,23.8,17.64,23.8z M10.85,22.64h6.2v-9.1h-6.2V22.64z"/>
	<path class="st0" d="M25,23.83h-7.36c-0.32,0-0.58-0.26-0.58-0.58V12.99c0-0.32,0.26-0.58,0.58-0.58H25c0.32,0,0.58,0.26,0.58,0.58
		v10.26C25.58,23.57,25.32,23.83,25,23.83z M18.22,22.67h6.2v-9.1h-6.2V22.67z"/>
	<path class="st0" d="M32.36,23.86H25c-0.32,0-0.58-0.26-0.58-0.58V13.02c0-0.32,0.26-0.58,0.58-0.58h7.36
		c0.32,0,0.58,0.26,0.58,0.58v10.26C32.94,23.6,32.68,23.86,32.36,23.86z M25.58,22.7h6.2v-9.1h-6.2V22.7z"/>
	<path class="st0" d="M39.73,23.89h-7.36c-0.32,0-0.58-0.26-0.58-0.58V13.05c0-0.32,0.26-0.58,0.58-0.58h7.36
		c0.32,0,0.58,0.26,0.58,0.58v10.26C40.31,23.63,40.05,23.89,39.73,23.89z M32.94,22.73h6.2v-9.1h-6.2V22.73z"/>
	<path class="st0" d="M16.04,34.94H12.5c-0.32,0-0.58-0.26-0.58-0.58v-8.34c0-0.32,0.26-0.58,0.58-0.58h3.54
		c0.32,0,0.58,0.26,0.58,0.58v8.34C16.62,34.68,16.36,34.94,16.04,34.94z M13.08,33.78h2.38V26.6h-2.38V33.78z"/>
	<path class="st0" d="M19.58,34.94h-3.54c-0.32,0-0.58-0.26-0.58-0.58v-8.34c0-0.32,0.26-0.58,0.58-0.58h3.54
		c0.32,0,0.58,0.26,0.58,0.58v8.34C20.16,34.68,19.9,34.94,19.58,34.94z M16.62,33.78H19V26.6h-2.38V33.78z"/>
	<path class="st0" d="M37.5,34.94h-3.54c-0.32,0-0.58-0.26-0.58-0.58v-8.34c0-0.32,0.26-0.58,0.58-0.58h3.54
		c0.32,0,0.58,0.26,0.58,0.58v8.34C38.08,34.68,37.82,34.94,37.5,34.94z M34.54,33.78h2.38V26.6h-2.38V33.78z"/>
	<path class="st0" d="M33.96,34.94h-3.54c-0.32,0-0.58-0.26-0.58-0.58v-8.34c0-0.32,0.26-0.58,0.58-0.58h3.54
		c0.32,0,0.58,0.26,0.58,0.58v8.34C34.54,34.68,34.28,34.94,33.96,34.94z M31,33.78h2.38V26.6H31V33.78z"/>
	<path class="st0" d="M27.64,40.39h-5.28c-0.32,0-0.58-0.26-0.58-0.58v-7.48c0-0.32,0.26-0.58,0.58-0.58h5.28
		c0.32,0,0.58,0.26,0.58,0.58v7.48C28.22,40.13,27.96,40.39,27.64,40.39z M22.94,39.23h4.12v-6.32h-4.12V39.23z"/>
	<path class="st0" d="M42.09,40.39H7.91c-0.32,0-0.58-0.26-0.58-0.58c0-0.32,0.26-0.58,0.58-0.58h34.17c0.32,0,0.58,0.26,0.58,0.58
		C42.67,40.13,42.41,40.39,42.09,40.39z"/>
</g>
</svg>
