<?xml version="1.0" encoding="utf-8"?>
<!-- Generator: Adobe Illustrator 26.0.3, SVG Export Plug-In . SVG Version: 6.00 Build 0)  -->
<svg version="1.1" id="Layer_1" xmlns="http://www.w3.org/2000/svg" xmlns:xlink="http://www.w3.org/1999/xlink" x="0px" y="0px"
	 viewBox="0 0 50 50" style="enable-background:new 0 0 50 50;" xml:space="preserve">
<style type="text/css">
	.st0{fill:#506A66;}
	.st1{fill:#DBE1E0;}
	.st2{fill-rule:evenodd;clip-rule:evenodd;fill:#506A66;}
</style>
<g>
	<path class="st0" d="M39.85,44.08h-7.13c-0.35,0-0.63-0.28-0.63-0.63V24.47c0-0.35,0.28-0.63,0.63-0.63h7.13
		c0.35,0,0.63,0.28,0.63,0.63v18.99C40.48,43.8,40.2,44.08,39.85,44.08z M33.35,42.82h5.87V25.1h-5.87V42.82z"/>
	<path class="st0" d="M32.72,44.08H17.28c-0.35,0-0.63-0.28-0.63-0.63V19.01c0-0.35,0.28-0.63,0.63-0.63h15.44
		c0.35,0,0.63,0.28,0.63,0.63v24.44C33.35,43.8,33.07,44.08,32.72,44.08z M17.91,42.82h14.18V19.64H17.91V42.82z"/>
	<path class="st0" d="M27.52,44.08h-5.04c-0.35,0-0.63-0.28-0.63-0.63v-3.04c0-0.35,0.28-0.63,0.63-0.63h5.04
		c0.35,0,0.63,0.28,0.63,0.63v3.04C28.15,43.8,27.87,44.08,27.52,44.08z M23.11,42.82h3.79v-1.78h-3.79V42.82z"/>
	<path class="st0" d="M30.9,19.64H19.1c-0.35,0-0.63-0.28-0.63-0.63V16.1c0-0.35,0.28-0.63,0.63-0.63H30.9
		c0.35,0,0.63,0.28,0.63,0.63v2.91C31.53,19.36,31.24,19.64,30.9,19.64z M19.73,18.38h10.54v-1.65H19.73V18.38z"/>
	<path class="st0" d="M28.3,16.73H21.7c-0.35,0-0.63-0.28-0.63-0.63v-3.66c0-0.35,0.28-0.63,0.63-0.63h6.61
		c0.35,0,0.63,0.28,0.63,0.63v3.66C28.93,16.45,28.65,16.73,28.3,16.73z M22.32,15.47h5.35v-2.4h-5.35V15.47z"/>
	<path class="st0" d="M28.3,13.07H21.7c-0.25,0-0.48-0.15-0.58-0.39c-0.1-0.23-0.05-0.5,0.13-0.68l3.3-3.38
		c0.24-0.24,0.66-0.24,0.9,0l3.3,3.38c0.18,0.18,0.23,0.45,0.13,0.68C28.79,12.92,28.56,13.07,28.3,13.07z M23.19,11.81h3.62
		L25,9.96L23.19,11.81z"/>
	<path class="st0" d="M25,9.69c-0.35,0-0.63-0.28-0.63-0.63V6.55c0-0.35,0.28-0.63,0.63-0.63c0.35,0,0.63,0.28,0.63,0.63v2.52
		C25.63,9.41,25.35,9.69,25,9.69z"/>
	<path class="st0" d="M29.46,22.64h-8.92c-0.35,0-0.63-0.28-0.63-0.63c0-0.35,0.28-0.63,0.63-0.63h8.92c0.35,0,0.63,0.28,0.63,0.63
		C30.09,22.36,29.81,22.64,29.46,22.64z"/>
	<path class="st0" d="M29.46,25.31h-8.92c-0.35,0-0.63-0.28-0.63-0.63c0-0.35,0.28-0.63,0.63-0.63h8.92c0.35,0,0.63,0.28,0.63,0.63
		C30.09,25.03,29.81,25.31,29.46,25.31z"/>
	<path class="st0" d="M29.46,27.98h-8.92c-0.35,0-0.63-0.28-0.63-0.63s0.28-0.63,0.63-0.63h8.92c0.35,0,0.63,0.28,0.63,0.63
		S29.81,27.98,29.46,27.98z"/>
	<path class="st0" d="M29.46,30.65h-8.92c-0.35,0-0.63-0.28-0.63-0.63c0-0.35,0.28-0.63,0.63-0.63h8.92c0.35,0,0.63,0.28,0.63,0.63
		C30.09,30.37,29.81,30.65,29.46,30.65z"/>
	<path class="st0" d="M29.46,33.32h-8.92c-0.35,0-0.63-0.28-0.63-0.63c0-0.35,0.28-0.63,0.63-0.63h8.92c0.35,0,0.63,0.28,0.63,0.63
		C30.09,33.04,29.81,33.32,29.46,33.32z"/>
	<path class="st0" d="M29.46,35.99h-8.92c-0.35,0-0.63-0.28-0.63-0.63c0-0.35,0.28-0.63,0.63-0.63h8.92c0.35,0,0.63,0.28,0.63,0.63
		C30.09,35.71,29.81,35.99,29.46,35.99z"/>
	<path class="st0" d="M29.46,38.66h-8.92c-0.35,0-0.63-0.28-0.63-0.63s0.28-0.63,0.63-0.63h8.92c0.35,0,0.63,0.28,0.63,0.63
		S29.81,38.66,29.46,38.66z"/>
	<path class="st0" d="M37.77,27.98H34.8c-0.35,0-0.63-0.28-0.63-0.63s0.28-0.63,0.63-0.63h2.97c0.35,0,0.63,0.28,0.63,0.63
		S38.12,27.98,37.77,27.98z"/>
	<path class="st0" d="M37.77,30.65H34.8c-0.35,0-0.63-0.28-0.63-0.63c0-0.35,0.28-0.63,0.63-0.63h2.97c0.35,0,0.63,0.28,0.63,0.63
		C38.4,30.37,38.12,30.65,37.77,30.65z"/>
	<path class="st0" d="M37.77,33.32H34.8c-0.35,0-0.63-0.28-0.63-0.63c0-0.35,0.28-0.63,0.63-0.63h2.97c0.35,0,0.63,0.28,0.63,0.63
		C38.4,33.04,38.12,33.32,37.77,33.32z"/>
	<path class="st0" d="M37.77,35.99H34.8c-0.35,0-0.63-0.28-0.63-0.63c0-0.35,0.28-0.63,0.63-0.63h2.97c0.35,0,0.63,0.28,0.63,0.63
		C38.4,35.71,38.12,35.99,37.77,35.99z"/>
	<path class="st0" d="M37.77,38.66H34.8c-0.35,0-0.63-0.28-0.63-0.63s0.28-0.63,0.63-0.63h2.97c0.35,0,0.63,0.28,0.63,0.63
		S38.12,38.66,37.77,38.66z"/>
	<path class="st0" d="M37.77,41.32H34.8c-0.35,0-0.63-0.28-0.63-0.63c0-0.35,0.28-0.63,0.63-0.63h2.97c0.35,0,0.63,0.28,0.63,0.63
		C38.4,41.04,38.12,41.32,37.77,41.32z"/>
	<path class="st0" d="M17.28,44.08h-7.13c-0.35,0-0.63-0.28-0.63-0.63V24.47c0-0.35,0.28-0.63,0.63-0.63h7.13
		c0.35,0,0.63,0.28,0.63,0.63v18.99C17.91,43.8,17.63,44.08,17.28,44.08z M10.78,42.82h5.87V25.1h-5.87V42.82z"/>
	<path class="st0" d="M15.2,27.98h-2.97c-0.35,0-0.63-0.28-0.63-0.63s0.28-0.63,0.63-0.63h2.97c0.35,0,0.63,0.28,0.63,0.63
		S15.55,27.98,15.2,27.98z"/>
	<path class="st0" d="M15.2,30.65h-2.97c-0.35,0-0.63-0.28-0.63-0.63c0-0.35,0.28-0.63,0.63-0.63h2.97c0.35,0,0.63,0.28,0.63,0.63
		C15.83,30.37,15.55,30.65,15.2,30.65z"/>
	<path class="st0" d="M15.2,33.32h-2.97c-0.35,0-0.63-0.28-0.63-0.63c0-0.35,0.28-0.63,0.63-0.63h2.97c0.35,0,0.63,0.28,0.63,0.63
		C15.83,33.04,15.55,33.32,15.2,33.32z"/>
	<path class="st0" d="M15.2,35.99h-2.97c-0.35,0-0.63-0.28-0.63-0.63c0-0.35,0.28-0.63,0.63-0.63h2.97c0.35,0,0.63,0.28,0.63,0.63
		C15.83,35.71,15.55,35.99,15.2,35.99z"/>
	<path class="st0" d="M15.2,38.66h-2.97c-0.35,0-0.63-0.28-0.63-0.63s0.28-0.63,0.63-0.63h2.97c0.35,0,0.63,0.28,0.63,0.63
		S15.55,38.66,15.2,38.66z"/>
	<path class="st0" d="M15.2,41.32h-2.97c-0.35,0-0.63-0.28-0.63-0.63c0-0.35,0.28-0.63,0.63-0.63h2.97c0.35,0,0.63,0.28,0.63,0.63
		C15.83,41.04,15.55,41.32,15.2,41.32z"/>
	<path class="st0" d="M41.11,44.08H8.89c-0.35,0-0.63-0.28-0.63-0.63c0-0.35,0.28-0.63,0.63-0.63h32.22c0.35,0,0.63,0.28,0.63,0.63
		C41.74,43.8,41.45,44.08,41.11,44.08z"/>
</g>
</svg>
