<?xml version="1.0" encoding="utf-8"?>
<!-- Generator: Adobe Illustrator 26.0.3, SVG Export Plug-In . SVG Version: 6.00 Build 0)  -->
<svg version="1.1" id="Layer_1" xmlns="http://www.w3.org/2000/svg" xmlns:xlink="http://www.w3.org/1999/xlink" x="0px" y="0px"
	 viewBox="0 0 50 50" style="enable-background:new 0 0 50 50;" xml:space="preserve">
<style type="text/css">
	.st0{fill:#506A66;}
	.st1{fill:#DBE1E0;}
	.st2{fill-rule:evenodd;clip-rule:evenodd;fill:#506A66;}
</style>
<g>
	<path class="st0" d="M30.26,43.88H7.99c-0.36,0-0.65-0.29-0.65-0.65V9.37c0-0.36,0.29-0.65,0.65-0.65h22.27
		c0.36,0,0.65,0.29,0.65,0.65v33.85C30.91,43.59,30.62,43.88,30.26,43.88z M8.64,42.58h20.98V10.02H8.64V42.58z"/>
	<path class="st0" d="M30.26,13.45H7.99c-0.36,0-0.65-0.29-0.65-0.65c0-0.36,0.29-0.65,0.65-0.65h22.27c0.36,0,0.65,0.29,0.65,0.65
		C30.91,13.16,30.62,13.45,30.26,13.45z"/>
	<path class="st0" d="M42.01,43.88H30.26c-0.36,0-0.65-0.29-0.65-0.65s0.29-0.65,0.65-0.65h11.1V22.92L30.1,19.95
		c-0.35-0.09-0.55-0.45-0.46-0.79c0.09-0.35,0.45-0.55,0.79-0.46l11.75,3.09c0.29,0.08,0.48,0.33,0.48,0.63v20.81
		C42.66,43.59,42.37,43.88,42.01,43.88z"/>
	<path class="st0" d="M42.01,26.29c-0.05,0-0.11-0.01-0.16-0.02l-11.75-2.95c-0.35-0.09-0.56-0.44-0.47-0.79
		c0.09-0.35,0.44-0.56,0.79-0.47l11.75,2.95c0.35,0.09,0.56,0.44,0.47,0.79C42.57,26.09,42.3,26.29,42.01,26.29z"/>
	<path class="st0" d="M14.55,26.98h-3.52c-0.36,0-0.65-0.29-0.65-0.65V15.32c0-0.36,0.29-0.65,0.65-0.65h3.52
		c0.36,0,0.65,0.29,0.65,0.65v11.01C15.2,26.69,14.91,26.98,14.55,26.98z M11.68,25.68h2.22v-9.71h-2.22V25.68z"/>
	<path class="st0" d="M20.89,26.98h-3.52c-0.36,0-0.65-0.29-0.65-0.65V15.32c0-0.36,0.29-0.65,0.65-0.65h3.52
		c0.36,0,0.65,0.29,0.65,0.65v11.01C21.53,26.69,21.24,26.98,20.89,26.98z M18.02,25.68h2.22v-9.71h-2.22V25.68z"/>
	<path class="st0" d="M27.22,26.98H23.7c-0.36,0-0.65-0.29-0.65-0.65V15.32c0-0.36,0.29-0.65,0.65-0.65h3.52
		c0.36,0,0.65,0.29,0.65,0.65v11.01C27.87,26.69,27.58,26.98,27.22,26.98z M24.35,25.68h2.22v-9.71h-2.22V25.68z"/>
	<path class="st0" d="M14.55,41.05h-3.52c-0.36,0-0.65-0.29-0.65-0.65V29.39c0-0.36,0.29-0.65,0.65-0.65h3.52
		c0.36,0,0.65,0.29,0.65,0.65V40.4C15.2,40.76,14.91,41.05,14.55,41.05z M11.68,39.75h2.22v-9.71h-2.22V39.75z"/>
	<path class="st0" d="M20.89,41.05h-3.52c-0.36,0-0.65-0.29-0.65-0.65V29.39c0-0.36,0.29-0.65,0.65-0.65h3.52
		c0.36,0,0.65,0.29,0.65,0.65V40.4C21.53,40.76,21.24,41.05,20.89,41.05z M18.02,39.75h2.22v-9.71h-2.22V39.75z"/>
	<path class="st0" d="M27.22,41.05H23.7c-0.36,0-0.65-0.29-0.65-0.65V29.39c0-0.36,0.29-0.65,0.65-0.65h3.52
		c0.36,0,0.65,0.29,0.65,0.65V40.4C27.87,40.76,27.58,41.05,27.22,41.05z M24.35,39.75h2.22v-9.71h-2.22V39.75z"/>
	<path class="st0" d="M39.52,32.76h-6.77c-0.36,0-0.65-0.29-0.65-0.65v-3.09c0-0.36,0.29-0.65,0.65-0.65h6.77
		c0.36,0,0.65,0.29,0.65,0.65v3.09C40.17,32.47,39.88,32.76,39.52,32.76z M33.4,31.46h5.47v-1.79H33.4V31.46z"/>
	<path class="st0" d="M39.52,38.52h-6.77c-0.36,0-0.65-0.29-0.65-0.65v-3.09c0-0.36,0.29-0.65,0.65-0.65h6.77
		c0.36,0,0.65,0.29,0.65,0.65v3.09C40.17,38.23,39.88,38.52,39.52,38.52z M33.4,37.22h5.47v-1.79H33.4V37.22z"/>
	<path class="st0" d="M34.35,18.7c-0.24,0-0.48-0.14-0.59-0.38c-0.15-0.33-0.01-0.71,0.31-0.86c1.46-0.68,2.16-2.39,1.61-3.9
		c-0.48-1.29-1.71-2.11-3.08-2.04c-0.36,0.02-0.66-0.26-0.68-0.62c-0.02-0.36,0.26-0.66,0.62-0.68c1.94-0.11,3.7,1.06,4.37,2.88
		c0.79,2.14-0.21,4.57-2.28,5.53C34.53,18.68,34.44,18.7,34.35,18.7z"/>
	<path class="st0" d="M39.58,19.19c-0.11,0-0.22-0.03-0.32-0.09l-1.71-0.98c-0.31-0.18-0.42-0.58-0.24-0.89
		c0.18-0.31,0.58-0.42,0.89-0.24l1.71,0.98c0.31,0.18,0.42,0.58,0.24,0.89C40.03,19.07,39.81,19.19,39.58,19.19z"/>
	<path class="st0" d="M38.55,14.24c-0.31,0-0.58-0.22-0.64-0.53c-0.06-0.35,0.17-0.69,0.52-0.75l1.94-0.35
		c0.35-0.06,0.69,0.17,0.75,0.52c0.06,0.35-0.17,0.69-0.52,0.75l-1.94,0.35C38.63,14.24,38.59,14.24,38.55,14.24z"/>
	<path class="st0" d="M36.52,10.76c-0.15,0-0.29-0.05-0.42-0.15c-0.28-0.23-0.31-0.64-0.08-0.91l1.26-1.52
		c0.23-0.28,0.64-0.31,0.92-0.08c0.28,0.23,0.31,0.64,0.08,0.91l-1.26,1.52C36.89,10.68,36.71,10.76,36.52,10.76z"/>
	<path class="st0" d="M32.73,9.4c-0.36,0-0.65-0.29-0.65-0.65l-0.01-1.97c0-0.36,0.29-0.65,0.65-0.65c0.36,0,0.65,0.29,0.65,0.65
		l0.01,1.97C33.38,9.1,33.09,9.4,32.73,9.4C32.73,9.4,32.73,9.4,32.73,9.4z"/>
</g>
</svg>
