<?xml version="1.0" encoding="utf-8"?>
<!-- Generator: Adobe Illustrator 26.0.3, SVG Export Plug-In . SVG Version: 6.00 Build 0)  -->
<svg version="1.1" id="Layer_1" xmlns="http://www.w3.org/2000/svg" xmlns:xlink="http://www.w3.org/1999/xlink" x="0px" y="0px"
	 viewBox="0 0 50 50" style="enable-background:new 0 0 50 50;" xml:space="preserve">
<style type="text/css">
	.st0{fill:#506A66;}
	.st1{fill:#DBE1E0;}
	.st2{fill-rule:evenodd;clip-rule:evenodd;fill:#506A66;}
</style>
<g>
	<path class="st0" d="M28.62,44.11H12.78c-0.35,0-0.63-0.28-0.63-0.63V13.65c0-0.35,0.28-0.63,0.63-0.63h15.85
		c0.35,0,0.63,0.28,0.63,0.63v29.83C29.25,43.83,28.97,44.11,28.62,44.11z M13.4,42.85h14.59V14.28H13.4V42.85z"/>
	<path class="st0" d="M23.74,44.11h-6.08c-0.35,0-0.63-0.28-0.63-0.63v-4.81c0-0.35,0.28-0.63,0.63-0.63h6.08
		c0.35,0,0.63,0.28,0.63,0.63v4.81C24.37,43.83,24.08,44.11,23.74,44.11z M18.29,42.85h4.82v-3.56h-4.82V42.85z"/>
	<path class="st0" d="M19.17,36.64h-3.02c-0.35,0-0.63-0.28-0.63-0.63V16.94c0-0.35,0.28-0.63,0.63-0.63h3.02
		c0.35,0,0.63,0.28,0.63,0.63v19.06C19.8,36.36,19.52,36.64,19.17,36.64z M16.78,35.38h1.76V17.57h-1.76V35.38z"/>
	<path class="st0" d="M25.25,36.64h-3.02c-0.35,0-0.63-0.28-0.63-0.63V16.94c0-0.35,0.28-0.63,0.63-0.63h3.02
		c0.35,0,0.63,0.28,0.63,0.63v19.06C25.87,36.36,25.59,36.64,25.25,36.64z M22.86,35.38h1.76V17.57h-1.76V35.38z"/>
	<path class="st0" d="M35.53,40.57h-3.71c-0.35,0-0.63-0.28-0.63-0.63V10.86c0-0.35,0.28-0.63,0.63-0.63h3.71
		c0.35,0,0.63,0.28,0.63,0.63v29.07C36.16,40.29,35.88,40.57,35.53,40.57z M32.45,39.31h2.45V11.49h-2.45V39.31z"/>
	<path class="st0" d="M39.68,44.11H28.62c-0.35,0-0.63-0.28-0.63-0.63v-29.2H20.2c-0.35,0-0.63-0.28-0.63-0.63V6.82
		c0-0.35,0.28-0.63,0.63-0.63h19.48c0.35,0,0.63,0.28,0.63,0.63v36.66C40.31,43.83,40.02,44.11,39.68,44.11z M29.25,42.85h9.8V7.45
		H20.83v5.58h7.79c0.35,0,0.63,0.28,0.63,0.63V42.85z"/>
	<path class="st0" d="M28.06,14.28h-3.71c-0.35,0-0.63-0.28-0.63-0.63v-2.79c0-0.35,0.28-0.63,0.63-0.63h3.71
		c0.35,0,0.63,0.28,0.63,0.63v2.79C28.69,14,28.4,14.28,28.06,14.28z M24.98,13.02h2.45v-1.53h-2.45V13.02z"/>
	<path class="st0" d="M41.16,44.11H11.29c-0.35,0-0.63-0.28-0.63-0.63s0.28-0.63,0.63-0.63h29.88c0.35,0,0.63,0.28,0.63,0.63
		S41.51,44.11,41.16,44.11z"/>
</g>
</svg>
