<?xml version="1.0" encoding="utf-8"?>
<!-- Generator: Adobe Illustrator 26.0.3, SVG Export Plug-In . SVG Version: 6.00 Build 0)  -->
<svg version="1.1" id="Layer_1" xmlns="http://www.w3.org/2000/svg" xmlns:xlink="http://www.w3.org/1999/xlink" x="0px" y="0px"
	 viewBox="0 0 50 50" style="enable-background:new 0 0 50 50;" xml:space="preserve">
<style type="text/css">
	.st0{fill:#506A66;}
	.st1{fill:#DBE1E0;}
	.st2{fill-rule:evenodd;clip-rule:evenodd;fill:#506A66;}
</style>
<g>
	<path class="st0" d="M24.92,39.54h-18c-0.35,0-0.63-0.28-0.63-0.63V11.09c0-0.35,0.28-0.63,0.63-0.63h18
		c0.35,0,0.63,0.28,0.63,0.63v27.83C25.55,39.26,25.27,39.54,24.92,39.54z M7.55,38.28h16.75V11.72H7.55V38.28z"/>
	<path class="st0" d="M24.92,31.28h-18c-0.35,0-0.63-0.28-0.63-0.63v-11.3c0-0.35,0.28-0.63,0.63-0.63h18
		c0.35,0,0.63,0.28,0.63,0.63v11.3C25.55,31,25.27,31.28,24.92,31.28z M7.55,30.02h16.75V19.98H7.55V30.02z"/>
	<path class="st0" d="M21.41,39.54H10.43c-0.35,0-0.63-0.28-0.63-0.63v-5.04c0-0.35,0.28-0.63,0.63-0.63h10.98
		c0.35,0,0.63,0.28,0.63,0.63v5.04C22.04,39.26,21.76,39.54,21.41,39.54z M11.06,38.28h9.72V34.5h-9.72V38.28z"/>
	<path class="st0" d="M43.08,39.54H24.92c-0.35,0-0.63-0.28-0.63-0.63v-23.2c0-0.2,0.1-0.39,0.26-0.51
		c0.16-0.12,0.37-0.15,0.56-0.09l18.16,5.93c0.26,0.08,0.43,0.33,0.43,0.6v17.26C43.71,39.26,43.43,39.54,43.08,39.54z M25.55,38.28
		h16.9V22.11l-16.9-5.52V38.28z"/>
	<path class="st0" d="M43.08,25.71c-0.07,0-0.13-0.01-0.19-0.03l-18.16-5.93c-0.26-0.08-0.43-0.33-0.43-0.6v-3.43
		c0-0.2,0.1-0.39,0.26-0.51c0.16-0.12,0.37-0.15,0.56-0.09l18.16,5.93c0.26,0.08,0.43,0.33,0.43,0.6v3.43c0,0.2-0.1,0.39-0.26,0.51
		C43.34,25.67,43.21,25.71,43.08,25.71z M25.55,18.69l16.9,5.52v-2.11l-16.9-5.52V18.69z"/>
	<path class="st0" d="M43.08,35.28c-0.04,0-0.09,0-0.14-0.01l-18.16-4c-0.34-0.07-0.55-0.41-0.48-0.75
		c0.08-0.34,0.41-0.56,0.75-0.48l18.16,4c0.34,0.07,0.55,0.41,0.48,0.75C43.63,35.08,43.37,35.28,43.08,35.28z"/>
	<path class="st0" d="M11.24,26.66c-0.16,0-0.32-0.06-0.44-0.18c-0.25-0.25-0.25-0.64,0-0.89l2.08-2.08c0.25-0.25,0.64-0.25,0.89,0
		c0.25,0.25,0.25,0.64,0,0.89l-2.08,2.08C11.56,26.6,11.4,26.66,11.24,26.66z"/>
	<path class="st0" d="M17.57,26.95c-0.16,0-0.32-0.06-0.44-0.18c-0.25-0.25-0.25-0.64,0-0.89l3.16-3.16c0.25-0.25,0.64-0.25,0.89,0
		c0.25,0.25,0.25,0.64,0,0.89l-3.17,3.16C17.89,26.89,17.73,26.95,17.57,26.95z"/>
	<path class="st0" d="M12.28,16.35c-0.16,0-0.32-0.06-0.44-0.18c-0.25-0.25-0.25-0.64,0-0.89l1.2-1.2c0.25-0.25,0.64-0.25,0.89,0
		c0.25,0.25,0.25,0.64,0,0.89l-1.2,1.2C12.6,16.28,12.44,16.35,12.28,16.35z"/>
	<path class="st0" d="M17.85,17.35c-0.16,0-0.32-0.06-0.44-0.18c-0.25-0.25-0.25-0.64,0-0.89l2.37-2.37c0.25-0.25,0.64-0.25,0.89,0
		s0.25,0.64,0,0.89l-2.37,2.37C18.17,17.29,18.01,17.35,17.85,17.35z"/>
	<path class="st0" d="M15.92,39.54c-0.35,0-0.63-0.28-0.63-0.63v-4.97c0-0.35,0.28-0.63,0.63-0.63c0.35,0,0.63,0.28,0.63,0.63v4.97
		C16.55,39.26,16.27,39.54,15.92,39.54z"/>
	<path class="st0" d="M44.05,39.54H5.95c-0.35,0-0.63-0.28-0.63-0.63s0.28-0.63,0.63-0.63h38.1c0.35,0,0.63,0.28,0.63,0.63
		S44.4,39.54,44.05,39.54z"/>
</g>
</svg>
