<?xml version="1.0" encoding="utf-8"?>
<!-- Generator: Adobe Illustrator 26.0.3, SVG Export Plug-In . SVG Version: 6.00 Build 0)  -->
<svg version="1.1" id="Layer_1" xmlns="http://www.w3.org/2000/svg" xmlns:xlink="http://www.w3.org/1999/xlink" x="0px" y="0px"
	 viewBox="0 0 50 50" style="enable-background:new 0 0 50 50;" xml:space="preserve">
<style type="text/css">
	.st0{fill:#506A66;}
	.st1{fill:#DBE1E0;}
	.st2{fill-rule:evenodd;clip-rule:evenodd;fill:#506A66;}
</style>
<g>
	<path class="st2" d="M23.48,30.88l5.66-5.67c0-0.11,0-0.21,0-0.32l-5.66-5.66c-0.11-0.11-0.21-0.11-0.32,0l-1.2,1.2l4.36,4.46
		c0.12,0.11,0.12,0.22,0,0.32l-4.36,4.36l1.2,1.31C23.26,30.98,23.36,30.98,23.48,30.88L23.48,30.88z M25,37.83L25,37.83
		c3.53,0,6.77-1.41,9-3.74c2.42-2.33,3.84-5.46,3.84-9.1c0-3.54-1.42-6.67-3.84-9c-2.23-2.32-5.46-3.83-9-3.83
		c-3.54,0-6.77,1.51-9,3.83c-2.32,2.32-3.84,5.46-3.84,9c0,3.64,1.52,6.77,3.84,9.1C18.23,36.42,21.47,37.83,25,37.83L25,37.83z
		 M32.73,32.73L32.73,32.73c-2.07,1.96-4.68,3.16-7.73,3.16c-2.94,0-5.66-1.2-7.62-3.16c-1.97-1.96-3.16-4.68-3.16-7.73
		c0-2.94,1.19-5.66,3.16-7.63c1.96-1.96,4.68-3.15,7.62-3.15c3.05,0,5.66,1.2,7.73,3.15c1.96,1.96,3.16,4.68,3.16,7.63
		C35.89,28.05,34.69,30.77,32.73,32.73L32.73,32.73z"/>
</g>
</svg>
